<svg id="Layer_1" data-name="Layer 1" xmlns="http://www.w3.org/2000/svg" viewBox="0 0 858.57 597.13"><defs><style>.cls-1{fill:#ebebeb;}.cls-2,.cls-6{fill:#e0e0e0;}.cls-3{fill:#f5f5f5;}.cls-4{fill:#e6e6e6;}.cls-5{fill:#f0f0f0;}.cls-10,.cls-11,.cls-12,.cls-6,.cls-8,.cls-9{isolation:isolate;}.cls-6,.cls-9{opacity:0.2;}.cls-7{fill:#0071f2;}.cls-10,.cls-11,.cls-12,.cls-30,.cls-8{fill:#fff;}.cls-8{opacity:0.7;}.cls-10{opacity:0.4;}.cls-11{opacity:0.3;}.cls-12{opacity:0.5;}.cls-13{fill:#2f2e41;}.cls-14{fill:#c2c4c6;}.cls-15{fill:#2e3135;}.cls-16{fill:#3f4347;}.cls-17{fill:#f9b499;}.cls-18{fill:#075099;}.cls-19{fill:#9ea0a3;}.cls-20{fill:#e1e1e2;}.cls-21{fill:#c644bd;}.cls-22{fill:#f7a48b;}.cls-23{fill:none;stroke:#f7a48b;stroke-miterlimit:10;}.cls-24{fill:#071ba8;}.cls-25{fill:#ff85e2;}.cls-26{fill:#ba0c99;}.cls-27{fill:#62a04d;}.cls-28{fill:#66aa50;}.cls-29{fill:#4a7f3b;}</style></defs><rect class="cls-1" y="562.19" width="858.57" height="0.43"/><rect class="cls-1" x="715.67" y="589.82" width="56.87" height="0.43"/><rect class="cls-1" x="553.83" y="594.49" width="14.92" height="0.43"/><rect class="cls-1" x="681" y="573.88" width="32.95" height="0.43"/><rect class="cls-1" x="90.08" y="576.77" width="74.16" height="0.43"/><rect class="cls-1" x="179.54" y="576.77" width="10.87" height="0.43"/><rect class="cls-1" x="225.75" y="584.01" width="160.86" height="0.43"/><path class="cls-1" d="M410.56,529.87H79a9.8,9.8,0,0,1-9.79-9.8V54A9.79,9.79,0,0,1,79,44.27H410.56a9.8,9.8,0,0,1,9.8,9.8h0v466A9.8,9.8,0,0,1,410.56,529.87ZM79,44.61A9.38,9.38,0,0,0,69.64,54h0V520.07A9.37,9.37,0,0,0,79,529.44H410.56a9.39,9.39,0,0,0,9.37-9.37V54a9.39,9.39,0,0,0-9.37-9.37Z" transform="translate(-3.6 -44.27)"/><path class="cls-1" d="M782,529.87H450.41a9.82,9.82,0,0,1-9.8-9.8V54a9.82,9.82,0,0,1,9.8-9.71H782A9.8,9.8,0,0,1,791.76,54V520.07A9.79,9.79,0,0,1,782,529.87ZM450.41,44.61A9.38,9.38,0,0,0,441,54V520.07a9.39,9.39,0,0,0,9.37,9.37H782a9.4,9.4,0,0,0,9.38-9.37V54A9.4,9.4,0,0,0,782,44.61Z" transform="translate(-3.6 -44.27)"/><rect class="cls-2" x="348.82" y="106.77" width="416.03" height="401.02"/><rect class="cls-3" x="355.5" y="114.05" width="409.35" height="386.73"/><polygon class="cls-4" points="358.52 407.13 358.52 290.79 370.59 290.79 370.59 275.42 397.79 262.72 397.79 246.99 402.32 246.99 402.32 290.79 406.86 290.79 406.86 407.13 412.9 407.13 412.9 346.69 426.5 346.69 426.5 314.97 431.03 314.97 431.03 407.13 441.59 407.13 441.59 372.37 449.15 372.37 449.15 363.31 465.77 363.31 465.77 331.59 474.84 331.59 474.84 310.44 485.41 310.44 485.41 278.71 489.95 278.71 489.95 310.44 500.53 310.44 500.53 331.59 509.58 331.59 509.58 363.31 526.2 363.31 526.2 372.37 533.75 372.37 533.75 407.13 542.82 407.13 542.82 363.31 559.44 363.31 559.44 266.63 563.98 266.63 563.98 256.05 600.22 256.05 600.22 266.63 607.78 266.63 607.78 336.13 638 336.13 638 343.66 648.56 343.66 648.56 348.2 638 348.2 638 375.4 669.72 375.4 669.72 284.75 675.76 284.75 675.76 266.63 690.87 266.63 690.87 197.14 695.4 197.14 695.4 266.63 705.98 266.63 705.98 284.75 764.85 284.75 764.85 500.78 355.5 500.78 355.5 407.13 358.52 407.13"/><rect class="cls-5" x="729.11" y="289.49" width="4.28" height="4.28"/><rect class="cls-5" x="729.11" y="296.67" width="4.28" height="4.28"/><rect class="cls-5" x="729.11" y="325.38" width="4.28" height="4.28"/><rect class="cls-5" x="729.11" y="332.54" width="4.28" height="4.28"/><rect class="cls-5" x="729.11" y="339.71" width="4.28" height="4.28"/><rect class="cls-5" x="729.11" y="361.25" width="4.28" height="4.28"/><rect class="cls-5" x="729.11" y="368.43" width="4.28" height="4.28"/><rect class="cls-5" x="722.31" y="318.2" width="4.28" height="4.28"/><rect class="cls-5" x="722.31" y="325.38" width="4.28" height="4.28"/><rect class="cls-5" x="722.31" y="332.54" width="4.28" height="4.28"/><rect class="cls-5" x="722.31" y="339.71" width="4.28" height="4.28"/><rect class="cls-5" x="722.31" y="346.89" width="4.28" height="4.28"/><rect class="cls-5" x="722.31" y="361.25" width="4.28" height="4.28"/><rect class="cls-5" x="722.31" y="368.43" width="4.28" height="4.28"/><rect class="cls-5" x="715.51" y="289.49" width="4.28" height="4.28"/><rect class="cls-5" x="715.51" y="296.67" width="4.28" height="4.28"/><rect class="cls-5" x="715.51" y="303.84" width="4.28" height="4.28"/><rect class="cls-5" x="715.51" y="311.02" width="4.28" height="4.28"/><rect class="cls-5" x="715.51" y="318.2" width="4.28" height="4.28"/><rect class="cls-5" x="715.51" y="325.38" width="4.28" height="4.28"/><rect class="cls-5" x="715.51" y="332.54" width="4.28" height="4.28"/><rect class="cls-5" x="715.51" y="339.71" width="4.28" height="4.28"/><rect class="cls-5" x="715.51" y="346.89" width="4.28" height="4.28"/><rect class="cls-5" x="715.51" y="354.07" width="4.28" height="4.28"/><rect class="cls-5" x="715.51" y="368.43" width="4.28" height="4.28"/><rect class="cls-5" x="708.71" y="289.49" width="4.28" height="4.28"/><rect class="cls-5" x="708.71" y="296.67" width="4.28" height="4.28"/><rect class="cls-5" x="708.71" y="303.84" width="4.28" height="4.28"/><rect class="cls-5" x="708.71" y="311.02" width="4.28" height="4.28"/><rect class="cls-5" x="708.71" y="318.2" width="4.28" height="4.28"/><rect class="cls-5" x="708.71" y="325.38" width="4.28" height="4.28"/><rect class="cls-5" x="708.71" y="332.54" width="4.28" height="4.28"/><rect class="cls-5" x="708.71" y="397.14" width="4.28" height="4.28"/><rect class="cls-5" x="701.91" y="289.49" width="4.28" height="4.28"/><rect class="cls-5" x="701.91" y="296.67" width="4.28" height="4.28"/><rect class="cls-5" x="701.91" y="303.84" width="4.28" height="4.28"/><rect class="cls-5" x="701.91" y="311.02" width="4.28" height="4.28"/><rect class="cls-5" x="701.91" y="318.2" width="4.28" height="4.28"/><rect class="cls-5" x="701.91" y="325.38" width="4.28" height="4.28"/><rect class="cls-5" x="701.91" y="332.54" width="4.28" height="4.28"/><rect class="cls-5" x="701.91" y="339.71" width="4.28" height="4.28"/><rect class="cls-5" x="701.91" y="382.78" width="4.28" height="4.28"/><rect class="cls-5" x="701.91" y="389.96" width="4.28" height="4.28"/><rect class="cls-5" x="701.91" y="397.14" width="4.28" height="4.28"/><rect class="cls-5" x="701.91" y="404.3" width="4.28" height="4.28"/><rect class="cls-5" x="701.91" y="433.01" width="4.28" height="4.28"/><rect class="cls-5" x="695.11" y="289.49" width="4.28" height="4.28"/><rect class="cls-5" x="695.11" y="296.67" width="4.28" height="4.28"/><rect class="cls-5" x="695.11" y="303.84" width="4.28" height="4.28"/><rect class="cls-5" x="695.11" y="311.02" width="4.28" height="4.28"/><rect class="cls-5" x="695.11" y="318.2" width="4.28" height="4.28"/><rect class="cls-5" x="695.11" y="325.38" width="4.28" height="4.28"/><rect class="cls-5" x="695.11" y="332.54" width="4.28" height="4.28"/><rect class="cls-5" x="695.11" y="339.71" width="4.28" height="4.28"/><rect class="cls-5" x="695.11" y="346.89" width="4.28" height="4.28"/><rect class="cls-5" x="695.11" y="354.07" width="4.28" height="4.28"/><rect class="cls-5" x="695.11" y="375.6" width="4.28" height="4.28"/><rect class="cls-5" x="695.11" y="382.78" width="4.28" height="4.28"/><rect class="cls-5" x="695.11" y="389.96" width="4.28" height="4.28"/><rect class="cls-5" x="695.11" y="397.14" width="4.28" height="4.28"/><rect class="cls-5" x="695.11" y="404.3" width="4.28" height="4.28"/><rect class="cls-5" x="695.11" y="433.01" width="4.28" height="4.28"/><rect class="cls-5" x="688.31" y="289.49" width="4.28" height="4.28"/><rect class="cls-5" x="688.31" y="296.67" width="4.28" height="4.28"/><rect class="cls-5" x="688.31" y="303.84" width="4.28" height="4.28"/><rect class="cls-5" x="688.31" y="311.02" width="4.28" height="4.28"/><rect class="cls-5" x="688.31" y="318.2" width="4.28" height="4.28"/><rect class="cls-5" x="688.31" y="325.38" width="4.28" height="4.28"/><rect class="cls-5" x="688.31" y="332.54" width="4.28" height="4.28"/><rect class="cls-5" x="688.31" y="339.71" width="4.28" height="4.28"/><rect class="cls-5" x="688.31" y="346.89" width="4.28" height="4.28"/><rect class="cls-5" x="688.31" y="354.07" width="4.28" height="4.28"/><rect class="cls-5" x="688.31" y="361.25" width="4.28" height="4.28"/><rect class="cls-5" x="688.31" y="368.43" width="4.28" height="4.28"/><rect class="cls-5" x="688.31" y="375.6" width="4.28" height="4.28"/><rect class="cls-5" x="688.31" y="382.78" width="4.28" height="4.28"/><rect class="cls-5" x="688.31" y="389.96" width="4.28" height="4.28"/><rect class="cls-5" x="688.31" y="397.14" width="4.28" height="4.28"/><rect class="cls-5" x="688.31" y="404.3" width="4.28" height="4.28"/><rect class="cls-5" x="688.31" y="411.47" width="4.28" height="4.28"/><rect class="cls-5" x="681.51" y="289.49" width="4.28" height="4.28"/><rect class="cls-5" x="681.51" y="296.67" width="4.28" height="4.28"/><rect class="cls-5" x="681.51" y="303.84" width="4.28" height="4.28"/><rect class="cls-5" x="681.51" y="311.02" width="4.28" height="4.28"/><rect class="cls-5" x="681.51" y="318.2" width="4.28" height="4.28"/><rect class="cls-5" x="681.51" y="325.38" width="4.28" height="4.28"/><rect class="cls-5" x="681.51" y="332.54" width="4.28" height="4.28"/><rect class="cls-5" x="681.51" y="339.71" width="4.28" height="4.28"/><rect class="cls-5" x="681.51" y="346.89" width="4.28" height="4.28"/><rect class="cls-5" x="681.51" y="354.07" width="4.28" height="4.28"/><rect class="cls-5" x="681.51" y="375.6" width="4.28" height="4.28"/><rect class="cls-5" x="681.51" y="382.78" width="4.28" height="4.28"/><rect class="cls-5" x="681.51" y="389.96" width="4.28" height="4.28"/><rect class="cls-5" x="681.51" y="397.14" width="4.28" height="4.28"/><rect class="cls-5" x="674.73" y="289.49" width="4.28" height="4.28"/><rect class="cls-5" x="674.73" y="296.67" width="4.28" height="4.28"/><rect class="cls-5" x="674.73" y="303.84" width="4.28" height="4.28"/><rect class="cls-5" x="674.73" y="311.02" width="4.28" height="4.28"/><rect class="cls-5" x="674.73" y="318.2" width="4.28" height="4.28"/><rect class="cls-5" x="674.73" y="325.38" width="4.28" height="4.28"/><rect class="cls-5" x="674.73" y="332.54" width="4.28" height="4.28"/><rect class="cls-5" x="674.73" y="339.71" width="4.28" height="4.28"/><rect class="cls-5" x="674.73" y="346.89" width="4.28" height="4.28"/><rect class="cls-5" x="674.73" y="354.07" width="4.28" height="4.28"/><rect class="cls-5" x="674.73" y="375.6" width="4.28" height="4.28"/><rect class="cls-5" x="674.73" y="382.78" width="4.28" height="4.28"/><rect class="cls-5" x="674.73" y="389.96" width="4.28" height="4.28"/><rect class="cls-5" x="598.18" y="270.86" width="4.28" height="4.28"/><rect class="cls-5" x="598.18" y="278.03" width="4.28" height="4.28"/><rect class="cls-5" x="598.18" y="285.21" width="4.28" height="4.28"/><rect class="cls-5" x="598.18" y="292.39" width="4.28" height="4.28"/><rect class="cls-5" x="598.18" y="299.57" width="4.28" height="4.28"/><rect class="cls-5" x="598.18" y="306.75" width="4.28" height="4.28"/><rect class="cls-5" x="598.18" y="313.91" width="4.28" height="4.28"/><rect class="cls-5" x="598.18" y="321.08" width="4.28" height="4.28"/><rect class="cls-5" x="598.18" y="342.62" width="4.28" height="4.28"/><rect class="cls-5" x="598.18" y="349.79" width="4.28" height="4.28"/><rect class="cls-5" x="591.38" y="270.86" width="4.28" height="4.28"/><rect class="cls-5" x="591.38" y="278.03" width="4.28" height="4.28"/><rect class="cls-5" x="591.38" y="285.21" width="4.28" height="4.28"/><rect class="cls-5" x="591.38" y="292.39" width="4.28" height="4.28"/><rect class="cls-5" x="591.38" y="299.57" width="4.28" height="4.28"/><rect class="cls-5" x="591.38" y="306.75" width="4.28" height="4.28"/><rect class="cls-5" x="591.38" y="313.91" width="4.28" height="4.28"/><rect class="cls-5" x="591.38" y="321.08" width="4.28" height="4.28"/><rect class="cls-5" x="591.38" y="349.79" width="4.28" height="4.28"/><rect class="cls-5" x="584.58" y="270.86" width="4.28" height="4.28"/><rect class="cls-5" x="584.58" y="278.03" width="4.28" height="4.28"/><rect class="cls-5" x="584.58" y="285.21" width="4.28" height="4.28"/><rect class="cls-5" x="584.58" y="292.39" width="4.28" height="4.28"/><rect class="cls-5" x="584.58" y="299.57" width="4.28" height="4.28"/><rect class="cls-5" x="584.58" y="306.75" width="4.28" height="4.28"/><rect class="cls-5" x="584.58" y="313.91" width="4.28" height="4.28"/><rect class="cls-5" x="584.58" y="321.08" width="4.28" height="4.28"/><rect class="cls-5" x="577.78" y="270.86" width="4.28" height="4.28"/><rect class="cls-5" x="577.78" y="278.03" width="4.28" height="4.28"/><rect class="cls-5" x="577.78" y="285.21" width="4.28" height="4.28"/><rect class="cls-5" x="577.78" y="292.39" width="4.28" height="4.28"/><rect class="cls-5" x="577.78" y="299.57" width="4.28" height="4.28"/><rect class="cls-5" x="577.78" y="306.75" width="4.28" height="4.28"/><rect class="cls-5" x="577.78" y="321.08" width="4.28" height="4.28"/><rect class="cls-5" x="577.78" y="328.26" width="4.28" height="4.28"/><rect class="cls-5" x="577.78" y="349.79" width="4.28" height="4.28"/><rect class="cls-5" x="577.78" y="356.97" width="4.28" height="4.28"/><rect class="cls-5" x="577.78" y="364.15" width="4.28" height="4.28"/><rect class="cls-5" x="577.78" y="371.33" width="4.28" height="4.28"/><rect class="cls-5" x="577.78" y="378.5" width="4.28" height="4.28"/><rect class="cls-5" x="577.78" y="385.67" width="4.28" height="4.28"/><rect class="cls-5" x="577.78" y="392.84" width="4.28" height="4.28"/><rect class="cls-5" x="570.98" y="270.86" width="4.28" height="4.28"/><rect class="cls-5" x="570.98" y="278.03" width="4.28" height="4.28"/><rect class="cls-5" x="570.98" y="285.21" width="4.28" height="4.28"/><rect class="cls-5" x="570.98" y="292.39" width="4.28" height="4.28"/><rect class="cls-5" x="570.98" y="299.57" width="4.28" height="4.28"/><rect class="cls-5" x="570.98" y="306.75" width="4.28" height="4.28"/><rect class="cls-5" x="570.98" y="328.26" width="4.28" height="4.28"/><rect class="cls-5" x="570.98" y="335.44" width="4.28" height="4.28"/><rect class="cls-5" x="570.98" y="342.62" width="4.28" height="4.28"/><rect class="cls-5" x="570.98" y="349.79" width="4.28" height="4.28"/><rect class="cls-5" x="570.98" y="356.97" width="4.28" height="4.28"/><rect class="cls-5" x="570.98" y="364.15" width="4.28" height="4.28"/><rect class="cls-5" x="570.98" y="371.33" width="4.28" height="4.28"/><rect class="cls-5" x="570.98" y="378.5" width="4.28" height="4.28"/><rect class="cls-5" x="570.98" y="385.67" width="4.28" height="4.28"/><rect class="cls-5" x="570.98" y="392.84" width="4.28" height="4.28"/><rect class="cls-5" x="570.98" y="400.02" width="4.28" height="4.28"/><rect class="cls-5" x="570.98" y="414.38" width="4.28" height="4.28"/><rect class="cls-5" x="564.18" y="270.86" width="4.28" height="4.28"/><rect class="cls-5" x="564.18" y="278.03" width="4.28" height="4.28"/><rect class="cls-5" x="564.18" y="285.21" width="4.28" height="4.28"/><rect class="cls-5" x="564.18" y="292.39" width="4.28" height="4.28"/><rect class="cls-5" x="564.18" y="299.57" width="4.28" height="4.28"/><rect class="cls-5" x="564.18" y="306.75" width="4.28" height="4.28"/><rect class="cls-5" x="564.18" y="328.26" width="4.28" height="4.28"/><rect class="cls-5" x="564.18" y="335.44" width="4.28" height="4.28"/><rect class="cls-5" x="564.18" y="342.62" width="4.28" height="4.28"/><rect class="cls-5" x="564.18" y="349.79" width="4.28" height="4.28"/><rect class="cls-5" x="564.18" y="371.33" width="4.28" height="4.28"/><rect class="cls-5" x="564.18" y="378.5" width="4.28" height="4.28"/><rect class="cls-5" x="564.18" y="385.67" width="4.28" height="4.28"/><rect class="cls-5" x="564.18" y="392.84" width="4.28" height="4.28"/><rect class="cls-5" x="564.18" y="400.02" width="4.28" height="4.28"/><rect class="cls-5" x="564.18" y="414.38" width="4.28" height="4.28"/><rect class="cls-5" x="564.18" y="421.55" width="4.28" height="4.28"/><rect class="cls-5" x="502.5" y="337.59" width="4.28" height="4.28"/><rect class="cls-5" x="502.5" y="344.76" width="4.28" height="4.28"/><rect class="cls-5" x="502.5" y="351.94" width="4.28" height="4.28"/><rect class="cls-5" x="502.5" y="359.1" width="4.28" height="4.28"/><rect class="cls-5" x="502.5" y="366.28" width="4.28" height="4.28"/><rect class="cls-5" x="502.5" y="373.46" width="4.28" height="4.28"/><rect class="cls-5" x="502.5" y="380.63" width="4.28" height="4.28"/><rect class="cls-5" x="502.5" y="402.17" width="4.28" height="4.28"/><rect class="cls-5" x="502.5" y="409.34" width="4.28" height="4.28"/><rect class="cls-5" x="502.5" y="416.52" width="4.28" height="4.28"/><rect class="cls-5" x="495.7" y="337.59" width="4.28" height="4.28"/><rect class="cls-5" x="495.7" y="344.76" width="4.28" height="4.28"/><rect class="cls-5" x="495.7" y="351.94" width="4.28" height="4.28"/><rect class="cls-5" x="495.7" y="359.1" width="4.28" height="4.28"/><rect class="cls-5" x="495.7" y="366.28" width="4.28" height="4.28"/><rect class="cls-5" x="495.7" y="373.46" width="4.28" height="4.28"/><rect class="cls-5" x="495.7" y="380.63" width="4.28" height="4.28"/><rect class="cls-5" x="488.9" y="337.59" width="4.28" height="4.28"/><rect class="cls-5" x="488.9" y="344.76" width="4.28" height="4.28"/><rect class="cls-5" x="488.9" y="351.94" width="4.28" height="4.28"/><rect class="cls-5" x="488.9" y="359.1" width="4.28" height="4.28"/><rect class="cls-5" x="488.9" y="366.28" width="4.28" height="4.28"/><rect class="cls-5" x="488.9" y="373.46" width="4.28" height="4.28"/><rect class="cls-5" x="488.9" y="380.63" width="4.28" height="4.28"/><rect class="cls-5" x="482.1" y="337.59" width="4.28" height="4.28"/><rect class="cls-5" x="482.1" y="344.76" width="4.28" height="4.28"/><rect class="cls-5" x="482.1" y="351.94" width="4.28" height="4.28"/><rect class="cls-5" x="482.1" y="359.1" width="4.28" height="4.28"/><rect class="cls-5" x="482.1" y="366.28" width="4.28" height="4.28"/><rect class="cls-5" x="482.1" y="373.46" width="4.28" height="4.28"/><rect class="cls-5" x="482.1" y="380.63" width="4.28" height="4.28"/><rect class="cls-5" x="482.1" y="387.81" width="4.28" height="4.28"/><rect class="cls-5" x="482.1" y="394.99" width="4.28" height="4.28"/><rect class="cls-5" x="482.1" y="402.17" width="4.28" height="4.28"/><rect class="cls-5" x="482.1" y="409.34" width="4.28" height="4.28"/><rect class="cls-5" x="475.3" y="337.59" width="4.28" height="4.28"/><rect class="cls-5" x="475.3" y="344.76" width="4.28" height="4.28"/><rect class="cls-5" x="475.3" y="351.94" width="4.28" height="4.28"/><rect class="cls-5" x="475.3" y="359.1" width="4.28" height="4.28"/><rect class="cls-5" x="475.3" y="366.28" width="4.28" height="4.28"/><rect class="cls-5" x="475.3" y="373.46" width="4.28" height="4.28"/><rect class="cls-5" x="475.3" y="380.63" width="4.28" height="4.28"/><rect class="cls-5" x="475.3" y="387.81" width="4.28" height="4.28"/><rect class="cls-5" x="475.3" y="394.99" width="4.28" height="4.28"/><rect class="cls-5" x="475.3" y="402.17" width="4.28" height="4.28"/><rect class="cls-5" x="475.3" y="409.34" width="4.28" height="4.28"/><rect class="cls-5" x="475.3" y="416.52" width="4.28" height="4.28"/><rect class="cls-5" x="475.3" y="438.04" width="4.28" height="4.28"/><rect class="cls-5" x="475.3" y="445.22" width="4.28" height="4.28"/><rect class="cls-5" x="468.5" y="337.59" width="4.28" height="4.28"/><rect class="cls-5" x="468.5" y="344.76" width="4.28" height="4.28"/><rect class="cls-5" x="468.5" y="351.94" width="4.28" height="4.28"/><rect class="cls-5" x="468.5" y="373.46" width="4.28" height="4.28"/><rect class="cls-5" x="468.5" y="380.63" width="4.28" height="4.28"/><rect class="cls-5" x="468.5" y="387.81" width="4.28" height="4.28"/><rect class="cls-5" x="468.5" y="394.99" width="4.28" height="4.28"/><rect class="cls-5" x="468.5" y="402.17" width="4.28" height="4.28"/><rect class="cls-5" x="468.5" y="409.34" width="4.28" height="4.28"/><rect class="cls-5" x="468.5" y="416.52" width="4.28" height="4.28"/><rect class="cls-5" x="468.5" y="438.04" width="4.28" height="4.28"/><rect class="cls-5" x="468.5" y="445.22" width="4.28" height="4.28"/><rect class="cls-5" x="468.5" y="452.39" width="4.28" height="4.28"/><rect class="cls-5" x="397.26" y="294.52" width="4.28" height="4.28"/><rect class="cls-5" x="397.26" y="301.7" width="4.28" height="4.28"/><rect class="cls-5" x="397.26" y="308.87" width="4.28" height="4.28"/><rect class="cls-5" x="397.26" y="316.05" width="4.28" height="4.28"/><rect class="cls-5" x="397.26" y="323.23" width="4.28" height="4.28"/><rect class="cls-5" x="397.26" y="330.41" width="4.28" height="4.28"/><rect class="cls-5" x="397.26" y="337.59" width="4.28" height="4.28"/><rect class="cls-5" x="397.26" y="344.76" width="4.28" height="4.28"/><rect class="cls-5" x="397.26" y="351.94" width="4.28" height="4.28"/><rect class="cls-5" x="397.26" y="359.1" width="4.28" height="4.28"/><rect class="cls-5" x="397.26" y="366.28" width="4.28" height="4.28"/><rect class="cls-5" x="397.26" y="373.46" width="4.28" height="4.28"/><rect class="cls-5" x="397.26" y="380.63" width="4.28" height="4.28"/><rect class="cls-5" x="397.26" y="387.81" width="4.28" height="4.28"/><rect class="cls-5" x="397.26" y="394.99" width="4.28" height="4.28"/><rect class="cls-5" x="397.26" y="402.17" width="4.28" height="4.28"/><rect class="cls-5" x="397.26" y="409.34" width="4.28" height="4.28"/><rect class="cls-5" x="397.26" y="416.52" width="4.28" height="4.28"/><rect class="cls-5" x="397.26" y="423.7" width="4.28" height="4.28"/><rect class="cls-5" x="397.26" y="430.86" width="4.28" height="4.28"/><rect class="cls-5" x="397.26" y="438.04" width="4.28" height="4.28"/><rect class="cls-5" x="397.26" y="445.22" width="4.28" height="4.28"/><rect class="cls-5" x="397.26" y="452.39" width="4.28" height="4.28"/><rect class="cls-5" x="390.46" y="294.52" width="4.28" height="4.28"/><rect class="cls-5" x="390.46" y="301.7" width="4.28" height="4.28"/><rect class="cls-5" x="390.46" y="308.87" width="4.28" height="4.28"/><rect class="cls-5" x="390.46" y="316.05" width="4.28" height="4.28"/><rect class="cls-5" x="390.46" y="323.23" width="4.28" height="4.28"/><rect class="cls-5" x="390.46" y="330.41" width="4.28" height="4.28"/><rect class="cls-5" x="390.46" y="337.59" width="4.28" height="4.28"/><rect class="cls-5" x="390.46" y="344.76" width="4.28" height="4.28"/><rect class="cls-5" x="390.46" y="351.94" width="4.28" height="4.28"/><rect class="cls-5" x="390.46" y="359.1" width="4.28" height="4.28"/><rect class="cls-5" x="390.46" y="366.28" width="4.28" height="4.28"/><rect class="cls-5" x="390.46" y="373.46" width="4.28" height="4.28"/><rect class="cls-5" x="390.46" y="380.63" width="4.28" height="4.28"/><rect class="cls-5" x="390.46" y="387.81" width="4.28" height="4.28"/><rect class="cls-5" x="390.46" y="394.99" width="4.28" height="4.28"/><rect class="cls-5" x="390.46" y="402.17" width="4.28" height="4.28"/><rect class="cls-5" x="390.46" y="409.34" width="4.28" height="4.28"/><rect class="cls-5" x="390.46" y="416.52" width="4.28" height="4.28"/><rect class="cls-5" x="390.46" y="423.7" width="4.28" height="4.28"/><rect class="cls-5" x="383.66" y="294.52" width="4.28" height="4.28"/><rect class="cls-5" x="383.66" y="301.7" width="4.28" height="4.28"/><rect class="cls-5" x="383.66" y="308.87" width="4.28" height="4.28"/><rect class="cls-5" x="383.66" y="316.05" width="4.28" height="4.28"/><rect class="cls-5" x="383.66" y="323.23" width="4.28" height="4.28"/><rect class="cls-5" x="383.66" y="330.41" width="4.28" height="4.28"/><rect class="cls-5" x="383.66" y="337.59" width="4.28" height="4.28"/><rect class="cls-5" x="383.66" y="344.76" width="4.28" height="4.28"/><rect class="cls-5" x="383.66" y="351.94" width="4.28" height="4.28"/><rect class="cls-5" x="383.66" y="359.1" width="4.28" height="4.28"/><rect class="cls-5" x="383.66" y="366.28" width="4.28" height="4.28"/><rect class="cls-5" x="383.66" y="373.46" width="4.28" height="4.28"/><rect class="cls-5" x="383.66" y="380.63" width="4.28" height="4.28"/><rect class="cls-5" x="383.66" y="387.81" width="4.28" height="4.28"/><rect class="cls-5" x="383.66" y="394.99" width="4.28" height="4.28"/><rect class="cls-5" x="383.66" y="402.17" width="4.28" height="4.28"/><rect class="cls-5" x="383.66" y="409.34" width="4.28" height="4.28"/><rect class="cls-5" x="383.66" y="416.52" width="4.28" height="4.28"/><rect class="cls-5" x="383.66" y="423.7" width="4.28" height="4.28"/><rect class="cls-5" x="376.86" y="294.52" width="4.28" height="4.28"/><rect class="cls-5" x="376.86" y="301.7" width="4.28" height="4.28"/><rect class="cls-5" x="376.86" y="308.87" width="4.28" height="4.28"/><rect class="cls-5" x="376.86" y="316.05" width="4.28" height="4.28"/><rect class="cls-5" x="376.86" y="323.23" width="4.28" height="4.28"/><rect class="cls-5" x="376.86" y="330.41" width="4.28" height="4.28"/><rect class="cls-5" x="376.86" y="337.59" width="4.28" height="4.28"/><rect class="cls-5" x="376.86" y="344.76" width="4.28" height="4.28"/><rect class="cls-5" x="376.86" y="351.94" width="4.28" height="4.28"/><rect class="cls-5" x="376.86" y="359.1" width="4.28" height="4.28"/><rect class="cls-5" x="376.86" y="366.28" width="4.28" height="4.28"/><rect class="cls-5" x="376.86" y="373.46" width="4.28" height="4.28"/><rect class="cls-5" x="376.86" y="380.63" width="4.28" height="4.28"/><rect class="cls-5" x="376.86" y="387.81" width="4.28" height="4.28"/><rect class="cls-5" x="376.86" y="394.99" width="4.28" height="4.28"/><rect class="cls-5" x="370.06" y="294.52" width="4.28" height="4.28"/><rect class="cls-5" x="370.06" y="301.7" width="4.28" height="4.28"/><rect class="cls-5" x="370.06" y="308.87" width="4.28" height="4.28"/><rect class="cls-5" x="370.06" y="316.05" width="4.28" height="4.28"/><rect class="cls-5" x="370.06" y="323.23" width="4.28" height="4.28"/><rect class="cls-5" x="370.06" y="330.41" width="4.28" height="4.28"/><rect class="cls-5" x="370.06" y="337.59" width="4.28" height="4.28"/><rect class="cls-5" x="370.06" y="344.76" width="4.28" height="4.28"/><rect class="cls-5" x="370.06" y="351.94" width="4.28" height="4.28"/><rect class="cls-5" x="370.06" y="359.1" width="4.28" height="4.28"/><rect class="cls-5" x="370.06" y="366.28" width="4.28" height="4.28"/><rect class="cls-5" x="370.06" y="373.46" width="4.28" height="4.28"/><rect class="cls-5" x="370.06" y="380.63" width="4.28" height="4.28"/><rect class="cls-5" x="363.26" y="294.52" width="4.28" height="4.28"/><rect class="cls-5" x="363.26" y="301.7" width="4.28" height="4.28"/><rect class="cls-5" x="363.26" y="308.87" width="4.28" height="4.28"/><rect class="cls-5" x="363.26" y="316.05" width="4.28" height="4.28"/><rect class="cls-5" x="363.26" y="323.23" width="4.28" height="4.28"/><rect class="cls-5" x="363.26" y="330.41" width="4.28" height="4.28"/><rect class="cls-5" x="363.26" y="337.59" width="4.28" height="4.28"/><rect class="cls-5" x="363.26" y="344.76" width="4.28" height="4.28"/><rect class="cls-5" x="363.26" y="351.94" width="4.28" height="4.28"/><rect class="cls-5" x="363.26" y="359.1" width="4.28" height="4.28"/><rect class="cls-5" x="363.26" y="366.28" width="4.28" height="4.28"/><rect class="cls-5" x="363.26" y="373.46" width="4.28" height="4.28"/><rect class="cls-5" x="760.07" y="292.39" width="4.28" height="4.28"/><rect class="cls-5" x="760.07" y="299.57" width="4.28" height="4.28"/><rect class="cls-5" x="760.07" y="306.75" width="4.28" height="4.28"/><rect class="cls-5" x="760.07" y="313.91" width="4.28" height="4.28"/><rect class="cls-5" x="760.07" y="321.08" width="4.28" height="4.28"/><rect class="cls-5" x="760.07" y="328.26" width="4.28" height="4.28"/><rect class="cls-5" x="760.07" y="335.44" width="4.28" height="4.28"/><rect class="cls-5" x="760.07" y="342.62" width="4.28" height="4.28"/><rect class="cls-5" x="760.07" y="349.79" width="4.28" height="4.28"/><rect class="cls-5" x="760.07" y="356.97" width="4.28" height="4.28"/><rect class="cls-5" x="760.07" y="364.15" width="4.28" height="4.28"/><rect class="cls-5" x="760.07" y="371.33" width="4.28" height="4.28"/><rect class="cls-5" x="760.07" y="378.5" width="4.28" height="4.28"/><rect class="cls-5" x="760.07" y="385.67" width="4.28" height="4.28"/><rect class="cls-5" x="760.07" y="392.84" width="4.28" height="4.28"/><rect class="cls-5" x="760.07" y="400.02" width="4.28" height="4.28"/><rect class="cls-5" x="760.07" y="407.2" width="4.28" height="4.28"/><rect class="cls-5" x="760.07" y="421.55" width="4.28" height="4.28"/><rect class="cls-5" x="760.07" y="428.73" width="4.28" height="4.28"/><rect class="cls-5" x="760.07" y="435.91" width="4.28" height="4.28"/><rect class="cls-5" x="760.07" y="443.09" width="4.28" height="4.28"/><rect class="cls-5" x="760.07" y="450.25" width="4.28" height="4.28"/><rect class="cls-5" x="753.27" y="292.39" width="4.28" height="4.28"/><rect class="cls-5" x="753.27" y="299.57" width="4.28" height="4.28"/><rect class="cls-5" x="753.27" y="306.75" width="4.28" height="4.28"/><rect class="cls-5" x="753.27" y="313.91" width="4.28" height="4.28"/><rect class="cls-5" x="753.27" y="321.08" width="4.28" height="4.28"/><rect class="cls-5" x="753.27" y="328.26" width="4.28" height="4.28"/><rect class="cls-5" x="753.27" y="335.44" width="4.28" height="4.28"/><rect class="cls-5" x="753.27" y="342.62" width="4.28" height="4.28"/><rect class="cls-5" x="753.27" y="349.79" width="4.28" height="4.28"/><rect class="cls-5" x="753.27" y="356.97" width="4.28" height="4.28"/><rect class="cls-5" x="753.27" y="364.15" width="4.28" height="4.28"/><rect class="cls-5" x="753.27" y="371.33" width="4.28" height="4.28"/><rect class="cls-5" x="753.27" y="378.5" width="4.28" height="4.28"/><rect class="cls-5" x="753.27" y="385.67" width="4.28" height="4.28"/><rect class="cls-5" x="753.27" y="392.84" width="4.28" height="4.28"/><rect class="cls-5" x="753.27" y="400.02" width="4.28" height="4.28"/><rect class="cls-5" x="753.27" y="443.09" width="4.28" height="4.28"/><rect class="cls-5" x="753.27" y="450.25" width="4.28" height="4.28"/><rect class="cls-5" x="746.49" y="292.39" width="4.28" height="4.28"/><rect class="cls-5" x="746.49" y="299.57" width="4.28" height="4.28"/><rect class="cls-5" x="746.49" y="306.75" width="4.28" height="4.28"/><rect class="cls-5" x="746.49" y="313.91" width="4.28" height="4.28"/><rect class="cls-5" x="746.49" y="321.08" width="4.28" height="4.28"/><rect class="cls-5" x="746.49" y="328.26" width="4.28" height="4.28"/><rect class="cls-5" x="746.49" y="335.44" width="4.28" height="4.28"/><rect class="cls-5" x="746.49" y="342.62" width="4.28" height="4.28"/><rect class="cls-5" x="746.49" y="349.79" width="4.28" height="4.28"/><rect class="cls-5" x="746.49" y="356.97" width="4.28" height="4.28"/><rect class="cls-5" x="746.49" y="364.15" width="4.28" height="4.28"/><rect class="cls-5" x="746.49" y="371.33" width="4.28" height="4.28"/><rect class="cls-5" x="746.49" y="378.5" width="4.28" height="4.28"/><rect class="cls-5" x="746.49" y="385.67" width="4.28" height="4.28"/><rect class="cls-5" x="746.49" y="392.84" width="4.28" height="4.28"/><rect class="cls-5" x="746.49" y="400.02" width="4.28" height="4.28"/><rect class="cls-5" x="746.49" y="414.38" width="4.28" height="4.28"/><rect class="cls-5" x="746.49" y="421.55" width="4.28" height="4.28"/><rect class="cls-5" x="746.49" y="428.73" width="4.28" height="4.28"/><rect class="cls-5" x="746.49" y="435.91" width="4.28" height="4.28"/><rect class="cls-5" x="746.49" y="450.25" width="4.28" height="4.28"/><rect class="cls-5" x="627.89" y="342.62" width="4.28" height="4.28"/><rect class="cls-5" x="627.89" y="349.79" width="4.28" height="4.28"/><rect class="cls-5" x="627.89" y="356.97" width="4.28" height="4.28"/><rect class="cls-5" x="627.89" y="364.15" width="4.28" height="4.28"/><rect class="cls-5" x="627.89" y="371.33" width="4.28" height="4.28"/><rect class="cls-5" x="627.89" y="378.5" width="4.28" height="4.28"/><rect class="cls-5" x="627.89" y="385.67" width="4.28" height="4.28"/><rect class="cls-5" x="627.89" y="392.84" width="4.28" height="4.28"/><rect class="cls-5" x="627.89" y="400.02" width="4.28" height="4.28"/><rect class="cls-5" x="627.89" y="407.2" width="4.28" height="4.28"/><rect class="cls-5" x="627.89" y="414.38" width="4.28" height="4.28"/><rect class="cls-5" x="627.89" y="421.55" width="4.28" height="4.28"/><rect class="cls-5" x="627.89" y="428.73" width="4.28" height="4.28"/><rect class="cls-5" x="627.89" y="443.09" width="4.28" height="4.28"/><rect class="cls-5" x="627.89" y="450.25" width="4.28" height="4.28"/><rect class="cls-5" x="627.89" y="457.42" width="4.28" height="4.28"/><rect class="cls-5" x="627.89" y="464.6" width="4.28" height="4.28"/><rect class="cls-5" x="627.89" y="478.96" width="4.28" height="4.28"/><rect class="cls-5" x="627.89" y="486.14" width="4.28" height="4.28"/><rect class="cls-5" x="627.89" y="493.31" width="4.28" height="4.28"/><rect class="cls-5" x="621.09" y="342.62" width="4.28" height="4.28"/><rect class="cls-5" x="621.09" y="349.79" width="4.28" height="4.28"/><rect class="cls-5" x="621.09" y="356.97" width="4.28" height="4.28"/><rect class="cls-5" x="621.09" y="364.15" width="4.28" height="4.28"/><rect class="cls-5" x="621.09" y="371.33" width="4.28" height="4.28"/><rect class="cls-5" x="621.09" y="378.5" width="4.28" height="4.28"/><rect class="cls-5" x="621.09" y="385.67" width="4.28" height="4.28"/><rect class="cls-5" x="621.09" y="392.84" width="4.28" height="4.28"/><rect class="cls-5" x="621.09" y="400.02" width="4.28" height="4.28"/><rect class="cls-5" x="621.09" y="407.2" width="4.28" height="4.28"/><rect class="cls-5" x="621.09" y="414.38" width="4.28" height="4.28"/><rect class="cls-5" x="621.09" y="421.55" width="4.28" height="4.28"/><rect class="cls-5" x="621.09" y="428.73" width="4.28" height="4.28"/><rect class="cls-5" x="621.09" y="450.25" width="4.28" height="4.28"/><rect class="cls-5" x="621.09" y="457.42" width="4.28" height="4.28"/><rect class="cls-5" x="621.09" y="471.78" width="4.28" height="4.28"/><rect class="cls-5" x="621.09" y="478.96" width="4.28" height="4.28"/><rect class="cls-5" x="621.09" y="486.14" width="4.28" height="4.28"/><rect class="cls-5" x="621.09" y="493.31" width="4.28" height="4.28"/><rect class="cls-5" x="614.29" y="342.62" width="4.28" height="4.28"/><rect class="cls-5" x="614.29" y="349.79" width="4.28" height="4.28"/><rect class="cls-5" x="614.29" y="356.97" width="4.28" height="4.28"/><rect class="cls-5" x="614.29" y="364.15" width="4.28" height="4.28"/><rect class="cls-5" x="614.29" y="371.33" width="4.28" height="4.28"/><rect class="cls-5" x="614.29" y="378.5" width="4.28" height="4.28"/><rect class="cls-5" x="614.29" y="385.67" width="4.28" height="4.28"/><rect class="cls-5" x="614.29" y="392.84" width="4.28" height="4.28"/><rect class="cls-5" x="614.29" y="400.02" width="4.28" height="4.28"/><rect class="cls-5" x="614.29" y="407.2" width="4.28" height="4.28"/><rect class="cls-5" x="614.29" y="414.38" width="4.28" height="4.28"/><rect class="cls-5" x="614.29" y="421.55" width="4.28" height="4.28"/><rect class="cls-5" x="614.29" y="428.73" width="4.28" height="4.28"/><rect class="cls-5" x="614.29" y="435.91" width="4.28" height="4.28"/><rect class="cls-5" x="614.29" y="450.25" width="4.28" height="4.28"/><rect class="cls-5" x="614.29" y="464.6" width="4.28" height="4.28"/><rect class="cls-5" x="614.29" y="471.78" width="4.28" height="4.28"/><rect class="cls-5" x="614.29" y="478.96" width="4.28" height="4.28"/><rect class="cls-5" x="614.29" y="486.14" width="4.28" height="4.28"/><rect class="cls-5" x="614.29" y="493.31" width="4.28" height="4.28"/><rect class="cls-5" x="655.58" y="383.54" width="4.28" height="4.28"/><rect class="cls-5" x="655.58" y="390.71" width="4.28" height="4.28"/><rect class="cls-5" x="655.58" y="397.89" width="4.28" height="4.28"/><rect class="cls-5" x="655.58" y="405.05" width="4.28" height="4.28"/><rect class="cls-5" x="655.58" y="412.23" width="4.28" height="4.28"/><rect class="cls-5" x="655.58" y="419.41" width="4.28" height="4.28"/><rect class="cls-5" x="655.58" y="440.94" width="4.28" height="4.28"/><rect class="cls-5" x="655.58" y="448.12" width="4.28" height="4.28"/><rect class="cls-5" x="655.58" y="455.3" width="4.28" height="4.28"/><rect class="cls-5" x="655.58" y="462.47" width="4.28" height="4.28"/><rect class="cls-5" x="655.58" y="469.65" width="4.28" height="4.28"/><rect class="cls-5" x="655.58" y="476.81" width="4.28" height="4.28"/><rect class="cls-5" x="655.58" y="483.99" width="4.28" height="4.28"/><rect class="cls-5" x="648.78" y="383.54" width="4.28" height="4.28"/><rect class="cls-5" x="648.78" y="390.71" width="4.28" height="4.28"/><rect class="cls-5" x="648.78" y="397.89" width="4.28" height="4.28"/><rect class="cls-5" x="648.78" y="405.05" width="4.28" height="4.28"/><rect class="cls-5" x="648.78" y="412.23" width="4.28" height="4.28"/><rect class="cls-5" x="648.78" y="419.41" width="4.28" height="4.28"/><rect class="cls-5" x="648.78" y="440.94" width="4.28" height="4.28"/><rect class="cls-5" x="648.78" y="448.12" width="4.28" height="4.28"/><rect class="cls-5" x="648.78" y="455.3" width="4.28" height="4.28"/><rect class="cls-5" x="648.78" y="462.47" width="4.28" height="4.28"/><rect class="cls-5" x="648.78" y="469.65" width="4.28" height="4.28"/><rect class="cls-5" x="648.78" y="476.81" width="4.28" height="4.28"/><rect class="cls-5" x="648.78" y="491.17" width="4.28" height="4.28"/><rect class="cls-5" x="422.93" y="351.94" width="4.28" height="4.28"/><rect class="cls-5" x="422.93" y="359.1" width="4.28" height="4.28"/><rect class="cls-5" x="422.93" y="366.28" width="4.28" height="4.28"/><rect class="cls-5" x="422.93" y="373.46" width="4.28" height="4.28"/><rect class="cls-5" x="422.93" y="380.63" width="4.28" height="4.28"/><rect class="cls-5" x="422.93" y="387.81" width="4.28" height="4.28"/><rect class="cls-5" x="422.93" y="394.99" width="4.28" height="4.28"/><rect class="cls-5" x="422.93" y="402.17" width="4.28" height="4.28"/><rect class="cls-5" x="422.93" y="409.34" width="4.28" height="4.28"/><rect class="cls-5" x="422.93" y="416.52" width="4.28" height="4.28"/><rect class="cls-5" x="422.93" y="423.7" width="4.28" height="4.28"/><rect class="cls-5" x="422.93" y="438.04" width="4.28" height="4.28"/><rect class="cls-5" x="422.93" y="445.22" width="4.28" height="4.28"/><rect class="cls-5" x="422.93" y="452.39" width="4.28" height="4.28"/><rect class="cls-5" x="422.93" y="459.57" width="4.28" height="4.28"/><rect class="cls-5" x="422.93" y="466.75" width="4.28" height="4.28"/><rect class="cls-5" x="422.93" y="473.93" width="4.28" height="4.28"/><rect class="cls-5" x="422.93" y="481.1" width="4.28" height="4.28"/><rect class="cls-5" x="422.93" y="488.28" width="4.28" height="4.28"/><rect class="cls-5" x="416.15" y="351.94" width="4.28" height="4.28"/><rect class="cls-5" x="416.15" y="359.1" width="4.28" height="4.28"/><rect class="cls-5" x="416.15" y="366.28" width="4.28" height="4.28"/><rect class="cls-5" x="416.15" y="373.46" width="4.28" height="4.28"/><rect class="cls-5" x="416.15" y="380.63" width="4.28" height="4.28"/><rect class="cls-5" x="416.15" y="387.81" width="4.28" height="4.28"/><rect class="cls-5" x="416.15" y="394.99" width="4.28" height="4.28"/><rect class="cls-5" x="416.15" y="402.17" width="4.28" height="4.28"/><rect class="cls-5" x="416.15" y="409.34" width="4.28" height="4.28"/><rect class="cls-5" x="416.15" y="416.52" width="4.28" height="4.28"/><rect class="cls-5" x="416.15" y="423.7" width="4.28" height="4.28"/><rect class="cls-5" x="416.15" y="430.86" width="4.28" height="4.28"/><rect class="cls-5" x="416.15" y="438.04" width="4.28" height="4.28"/><rect class="cls-5" x="416.15" y="445.22" width="4.28" height="4.28"/><rect class="cls-5" x="416.15" y="452.39" width="4.28" height="4.28"/><rect class="cls-5" x="416.15" y="459.57" width="4.28" height="4.28"/><rect class="cls-5" x="416.15" y="466.75" width="4.28" height="4.28"/><rect class="cls-5" x="416.15" y="473.93" width="4.28" height="4.28"/><rect class="cls-5" x="416.15" y="481.1" width="4.28" height="4.28"/><rect class="cls-5" x="416.15" y="488.28" width="4.28" height="4.28"/><rect class="cls-5" x="456.43" y="379.88" width="4.28" height="4.28"/><rect class="cls-5" x="456.43" y="387.06" width="4.28" height="4.28"/><rect class="cls-5" x="456.43" y="394.23" width="4.28" height="4.28"/><rect class="cls-5" x="456.43" y="401.41" width="4.28" height="4.28"/><rect class="cls-5" x="456.43" y="408.59" width="4.28" height="4.28"/><rect class="cls-5" x="456.43" y="415.77" width="4.28" height="4.28"/><rect class="cls-5" x="456.43" y="422.94" width="4.28" height="4.28"/><rect class="cls-5" x="456.43" y="430.11" width="4.28" height="4.28"/><rect class="cls-5" x="456.43" y="437.28" width="4.28" height="4.28"/><rect class="cls-5" x="456.43" y="444.46" width="4.28" height="4.28"/><rect class="cls-5" x="449.63" y="379.88" width="4.28" height="4.28"/><rect class="cls-5" x="449.63" y="387.06" width="4.28" height="4.28"/><rect class="cls-5" x="449.63" y="394.23" width="4.28" height="4.28"/><rect class="cls-5" x="449.63" y="401.41" width="4.28" height="4.28"/><rect class="cls-5" x="449.63" y="408.59" width="4.28" height="4.28"/><rect class="cls-5" x="449.63" y="415.77" width="4.28" height="4.28"/><rect class="cls-5" x="449.63" y="422.94" width="4.28" height="4.28"/><rect class="cls-5" x="449.63" y="430.11" width="4.28" height="4.28"/><rect class="cls-5" x="449.63" y="437.28" width="4.28" height="4.28"/><rect class="cls-2" x="487.17" y="107.56" width="7.18" height="400.23"/><rect class="cls-2" x="622.32" y="107.56" width="7.18" height="400.23"/><rect class="cls-2" x="757.46" y="107.56" width="7.18" height="400.23"/><path class="cls-5" d="M257.42,513.05h44.27a7.57,7.57,0,0,1,7.57,7.57h0v85.56H249.87V520.69a7.55,7.55,0,0,1,7.48-7.64h.07Z" transform="translate(-3.6 -44.27)"/><rect class="cls-4" x="246.27" y="481.45" width="59.4" height="6.68"/><path class="cls-2" d="M283.65,595h14.8a4.07,4.07,0,0,1,4.07,4.07h0v7.21h-23V599a4.07,4.07,0,0,1,4.07-4.07h0Z" transform="translate(-3.6 -44.27)"/><path class="cls-4" d="M302.59,606.25H286.13a2.64,2.64,0,0,1-2.64-2.64h0a2.65,2.65,0,0,1,2.64-2.63h16.46a2.65,2.65,0,0,1,2.64,2.63h0a2.64,2.64,0,0,1-2.64,2.64Z" transform="translate(-3.6 -44.27)"/><circle class="cls-2" cx="553.44" cy="49.42" r="40.44"/><circle class="cls-5" cx="553.43" cy="49.37" r="34.39"/><polyline class="cls-5" points="555.06 25.8 555.06 49.84 570.98 40.83"/><path class="cls-2" d="M558.66,95.78a1.65,1.65,0,0,1-.87-.24,1.72,1.72,0,0,1-.84-1.48V70a1.72,1.72,0,0,1,3.43,0V91.16l13.36-7.56a1.72,1.72,0,0,1,1.7,3l-15.94,9A1.87,1.87,0,0,1,558.66,95.78Z" transform="translate(-3.6 -44.27)"/><path class="cls-2" d="M170,488.39c-3.09-5.15-8.17-.67-8.17-.67.72-9.76-8.25-16.42-8.25-16.42s10.43,0,11.87-9.94-3.62-5.32-8.4-5.39-9.77,13.87-3.43,21.72,4.6,21.24-9.94,34.12a28.5,28.5,0,0,0-7.59,11.85c1.09-11.83,1.71-28.51-1.72-39.63-5.91-18.89,5.36-24,8.58-33.45s-8.58-17.45-8.58-17.45,11.18-5.15,5.72-10.9-16.73-5-16.73,2.57S131,435.31,131,435.31s8.73,9.08,8.73,13.74S131,464,131,464s4-8.7-4-9.06-10.54,10.16-7.26,14.88,8.72.74,8.72.74a92.61,92.61,0,0,0,2.54,16.3c.83,2.73.45,13.39-.24,24.49a27.61,27.61,0,0,0-7.09-10.51c-14.55-12.88-16.23-26.28-9.93-34.12S115,444.93,110.3,445s-9.87-4.56-8.41,5.38,11.88,10,11.88,10-9,6.66-8.26,16.41c0,0-5.15-4.43-8.17.67-5.52,9.09,7.28,14.72,9.42,10.31,0,0,27.12,19.19,20.61,46.82l1.51,2.25c-.19,2.24-.31,3.57-.31,3.57l2.11-.91,2.42,3.5a84.43,84.43,0,0,0,.62,12l6.47-9.58c-6.54-27.63,20.61-46.83,20.61-46.83C162.78,503.12,175.55,497.47,170,488.39Z" transform="translate(-3.6 -44.27)"/><path class="cls-6" d="M170,488.39c-3.09-5.15-8.17-.67-8.17-.67.72-9.76-8.25-16.42-8.25-16.42s10.43,0,11.87-9.94-3.62-5.32-8.4-5.39-9.77,13.87-3.43,21.72,4.6,21.24-9.94,34.12a28.5,28.5,0,0,0-7.59,11.85c1.09-11.83,1.71-28.51-1.72-39.63-5.91-18.89,5.36-24,8.58-33.45s-8.58-17.45-8.58-17.45,11.18-5.15,5.72-10.9-16.73-5-16.73,2.57S131,435.31,131,435.31s8.73,9.08,8.73,13.74S131,464,131,464s4-8.7-4-9.06-10.54,10.16-7.26,14.88,8.72.74,8.72.74a92.61,92.61,0,0,0,2.54,16.3c.83,2.73.45,13.39-.24,24.49a27.61,27.61,0,0,0-7.09-10.51c-14.55-12.88-16.23-26.28-9.93-34.12S115,444.93,110.3,445s-9.87-4.56-8.41,5.38,11.88,10,11.88,10-9,6.66-8.26,16.41c0,0-5.15-4.43-8.17.67-5.52,9.09,7.28,14.72,9.42,10.31,0,0,27.12,19.19,20.61,46.82l1.51,2.25c-.19,2.24-.31,3.57-.31,3.57l2.11-.91,2.42,3.5a84.43,84.43,0,0,0,.62,12l6.47-9.58c-6.54-27.63,20.61-46.83,20.61-46.83C162.78,503.12,175.55,497.47,170,488.39Z" transform="translate(-3.6 -44.27)"/><polygon class="cls-4" points="161.13 561.98 99.02 561.98 92.33 493.98 167.85 493.98 161.13 561.98"/><rect class="cls-5" x="89" y="486.48" width="82.15" height="15.01"/><rect class="cls-7" x="433.79" y="196.85" width="53.32" height="33.52" rx="2.37" transform="translate(-49.83 199.64) rotate(-28.31)"/><rect class="cls-8" x="433.79" y="196.85" width="53.32" height="33.52" rx="2.37" transform="translate(-49.83 199.64) rotate(-28.31)"/><path class="cls-9" d="M466.15,216.35a5.81,5.81,0,0,1-6.11,3.3l-28.33-4.18,27.83,2.75a5.44,5.44,0,0,0,5.36-2.85l13.31-25Z" transform="translate(-3.6 -44.27)"/><path class="cls-7" d="M498.16,188c-4.52-10.89-45-37.66-42.1-40.08s10.18,2.73,10.18,2.73-4.07-4.7,0-5,12.91,5.15,12.91,5.15-4.29-4.91,0-5.15,12.45,7.69,12.45,7.69-5.67-8.16,2.94-2.27,15.68,25.14,16.14,34.69S502.68,198.89,498.16,188Z" transform="translate(-3.6 -44.27)"/><path class="cls-10" d="M498.16,188c-4.52-10.89-45-37.66-42.1-40.08s10.18,2.73,10.18,2.73-4.07-4.7,0-5,12.91,5.15,12.91,5.15-4.29-4.91,0-5.15,12.45,7.69,12.45,7.69-5.67-8.16,2.94-2.27,15.68,25.14,16.14,34.69S502.68,198.89,498.16,188Z" transform="translate(-3.6 -44.27)"/><path class="cls-7" d="M480.05,189.2l-3.28,3.68a.49.49,0,0,1-.85-.38l.48-4.36-5.68.44a.43.43,0,0,1-.42-.21.45.45,0,0,1,.14-.61h0l5.41-3.43Z" transform="translate(-3.6 -44.27)"/><path class="cls-11" d="M480.05,189.2l-3.28,3.68a.49.49,0,0,1-.85-.38l.48-4.36-5.68.44a.43.43,0,0,1-.42-.21.45.45,0,0,1,.14-.61h0l5.41-3.43Z" transform="translate(-3.6 -44.27)"/><path class="cls-7" d="M535.53,179.55c3.93,13.74-4.35,29.38-19.92,29.19s-22.43-15.12-31-17.17-10.87-6.42-8.83-10.63,7.54-4.2,18.79-.56c9.48,3.05,21.44,3.29,26.34.56C529.79,176,533,161,533,161c11.31-3.33,18.8,1.82,18.8,1.82A41.39,41.39,0,0,0,535.53,179.55Z" transform="translate(-3.6 -44.27)"/><path class="cls-12" d="M535.53,179.55c3.93,13.74-4.35,29.38-19.92,29.19s-22.43-15.12-31-17.17-10.87-6.42-8.83-10.63,7.54-4.2,18.79-.56c9.48,3.05,21.44,3.29,26.34.56C529.79,176,533,161,533,161c11.31-3.33,18.8,1.82,18.8,1.82A41.39,41.39,0,0,0,535.53,179.55Z" transform="translate(-3.6 -44.27)"/><path class="cls-13" d="M480.82,183h0a.78.78,0,1,1-.69.69A.78.78,0,0,1,480.82,183Z" transform="translate(-3.6 -44.27)"/><path class="cls-7" d="M521,183.83c11.73-1,49.66-31.24,51.12-27.68s-5.73,8.84-5.73,8.84,5.77-2.4,4.74,1.55-8.93,10.66-8.93,10.66,6.06-2.54,4.94,1.61S556,188.28,556,188.28s9.48-2.92,1.24,3.43-28.75,7.14-38,4.64S509.25,184.77,521,183.83Z" transform="translate(-3.6 -44.27)"/><path class="cls-10" d="M521,183.83c11.73-1,49.66-31.24,51.12-27.68s-5.73,8.84-5.73,8.84,5.77-2.4,4.74,1.55-8.93,10.66-8.93,10.66,6.06-2.54,4.94,1.61S556,188.28,556,188.28s9.48-2.92,1.24,3.43-28.75,7.14-38,4.64S509.25,184.77,521,183.83Z" transform="translate(-3.6 -44.27)"/><path class="cls-7" d="M579.67,154.69a.64.64,0,0,1-.22-1.24,45.67,45.67,0,0,1,4.93-1.72.65.65,0,0,1,.47,1.21l-.09,0c-1.65.5-3.27,1-4.88,1.6a.74.74,0,0,1-.21,0Z" transform="translate(-3.6 -44.27)"/><path class="cls-7" d="M673.05,292.93h0a.64.64,0,0,1-.49-.75.65.65,0,0,1,.75-.52,61.08,61.08,0,0,0,10.19,1,.65.65,0,0,1,0,1.29A63.13,63.13,0,0,1,673.05,292.93Zm20.61.5a.64.64,0,0,1-.54-.54.65.65,0,0,1,.53-.75h0a96.46,96.46,0,0,0,10.13-1.71.64.64,0,0,1,.78.46.64.64,0,0,1-.46.78h-.05a87.82,87.82,0,0,1-10.3,1.72h0ZM663.28,290a.8.8,0,0,1-.31-.09,35,35,0,0,1-8.91-5.58.66.66,0,1,1,.86-1,33.41,33.41,0,0,0,8.58,5.38h0a.64.64,0,0,1,.3.85.61.61,0,0,1-.58.37Zm50-1.6a.66.66,0,0,1,.4-.82c3.25-1.08,6.47-2.34,9.6-3.71a.64.64,0,0,1,.77.29.65.65,0,0,1-.24.89h0c-3.18,1.39-6.46,2.66-9.72,3.75h-.2A.66.66,0,0,1,713.28,288.4Zm19.61-7.9a.66.66,0,0,1-.68-.29h0a.64.64,0,0,1,.24-.86h0c3-1.7,6-3.54,8.74-5.45a.64.64,0,0,1,.89.16.63.63,0,0,1-.14.88h0c-2.79,1.94-5.77,3.79-8.85,5.51a.55.55,0,0,1-.31,0ZM648,276.57a.66.66,0,0,1-.69-.27q-.82-1.5-1.53-3a38.51,38.51,0,0,1-2.31-6.76.65.65,0,0,1,.45-.79h0a.66.66,0,0,1,.79.48,35.77,35.77,0,0,0,2.23,6.54,27.75,27.75,0,0,0,1.48,2.88h0a.64.64,0,0,1-.24.86h0a.55.55,0,0,1-.31,0Zm101.83-7.93a.64.64,0,0,1-.47-.36.67.67,0,0,1,0-.91,73,73,0,0,0,7.2-7.3.62.62,0,0,1,.88,0h0a.65.65,0,0,1,0,.91,75.82,75.82,0,0,1-7.33,7.45.7.7,0,0,1-.41.16Zm-106.9-12h0a.65.65,0,0,1-.65-.65h0a60.57,60.57,0,0,1,1-10.41.67.67,0,0,1,.76-.53.64.64,0,0,1,.51.75h0a60,60,0,0,0-.94,10.19h0a.64.64,0,0,1-.64.64h0Zm3.25-20.4a.66.66,0,0,1-.43-.81c.89-3,2-6.25,3.31-9.85a.66.66,0,0,1,.83-.38h0a.64.64,0,0,1,.35.83c-1.33,3.57-2.41,6.76-3.28,9.77a.66.66,0,0,1-.62.46Zm7-19.51a.66.66,0,0,1-.34-.87h0c1.09-2.7,2.57-5.81,4.15-9.24v-.17a.65.65,0,0,1,1.17.55v.17c-1.56,3.35-3.06,6.51-4.16,9.25a.62.62,0,0,1-.56.36ZM662,198a.6.6,0,0,1-.21-.14h0a.64.64,0,0,1-.33-.84c1.54-3.55,2.76-6.69,3.72-9.6A.65.65,0,0,1,666,187a.65.65,0,0,1,.39.83c-1,2.93-2.21,6.11-3.76,9.7a.66.66,0,0,1-.6.38Zm6.21-19.76a.67.67,0,0,1-.53-.74,34.64,34.64,0,0,0,.43-5.38,23.9,23.9,0,0,0-.43-4.7.67.67,0,0,1,.45-.68.65.65,0,0,1,.82.42h0a26.2,26.2,0,0,1,.45,5,34.59,34.59,0,0,1-.45,5.57.66.66,0,0,1-.63.55Zm-4.41-19.42a.66.66,0,0,1-.55-.31,26,26,0,0,0-7.86-6.24.64.64,0,1,1,.6-1.13,27.61,27.61,0,0,1,8.26,6.54.67.67,0,0,1,0,.91.68.68,0,0,1-.41.14Zm-69.25-8.49a.64.64,0,0,1-.61-.5.65.65,0,0,1,.49-.78h0c3.43-.69,6.87-1.28,10.3-1.72h0a.64.64,0,0,1,.71.54h0a.64.64,0,0,1-.54.71h0c-3.45.45-6.87,1-10.16,1.72h-.19ZM646,148.85a65.24,65.24,0,0,0-10.13-1.46h0a.64.64,0,0,1-.58-.69.66.66,0,0,1,.69-.6,68.74,68.74,0,0,1,10.3,1.5.63.63,0,0,1,.57.68v0a.65.65,0,0,1-.71.57Zm-30.9-1.1a.64.64,0,0,1-.5-.69h0a.62.62,0,0,1,.58-.66h0c2.92-.21,6.51-.42,10.3-.5h0a.63.63,0,0,1,.63.63h0a.64.64,0,0,1-.63.66c-3.76.07-7.32.29-10.3.49h0Z" transform="translate(-3.6 -44.27)"/><path class="cls-7" d="M763.06,252.74a.73.73,0,0,1-.38-.11.61.61,0,0,1-.17-.85h0a45.35,45.35,0,0,0,2.24-4.53.67.67,0,0,1,.85-.34h0a.64.64,0,0,1,.33.84,43.16,43.16,0,0,1-2.32,4.67.61.61,0,0,1-.57.33Z" transform="translate(-3.6 -44.27)"/><polygon class="cls-14" points="181 231.61 198.92 421.68 208.09 421.68 189.34 231.19 181 231.61"/><polygon class="cls-14" points="206.43 231.61 218.51 419.18 226.02 419.18 215.59 231.19 206.43 231.61"/><polygon class="cls-14" points="205.18 596.33 196 596.33 196 435.02 209.76 435.02 205.18 596.33"/><polygon class="cls-14" points="257.28 595.49 248.11 595.49 244.36 435.02 258.11 435.02 257.28 595.49"/><polygon class="cls-14" points="271.03 595.91 280.2 595.91 283.95 435.43 270.2 435.43 271.03 595.91"/><polygon class="cls-14" points="340.64 595.91 349.81 595.91 350.23 436.69 336.47 436.69 340.64 595.91"/><rect class="cls-15" x="194.34" y="415.84" width="72.94" height="21.67"/><rect class="cls-16" x="267.28" y="415.84" width="85.45" height="21.67"/><polygon class="cls-17" points="276.87 561.73 276.87 578.82 296.46 578.82 296.46 559.65 276.87 561.73"/><path class="cls-18" d="M279.63,638.24v-16.4l20.48-.26L323,633.66a3.92,3.92,0,0,1,2.09,3.47h0a3.93,3.93,0,0,1-3.89,3.92l-38.35.35a3.16,3.16,0,0,1-3.22-3.1Z" transform="translate(-3.6 -44.27)"/><polygon class="cls-17" points="366.9 561.32 366.9 578.4 386.49 578.4 386.49 559.23 366.9 561.32"/><path class="cls-18" d="M369.67,637.82v-16.4l20.48-.26L413,633.24a3.92,3.92,0,0,1,2.09,3.47h0a3.93,3.93,0,0,1-3.89,3.92l-38.35.36a3.17,3.17,0,0,1-3.18-3.16Z" transform="translate(-3.6 -44.27)"/><polygon class="cls-19" points="140.57 596.33 146.82 596.33 180.58 346.23 173.91 346.23 140.57 596.33"/><polygon class="cls-19" points="261.86 596.33 255.61 596.33 221.85 346.23 228.52 346.23 261.86 596.33"/><rect class="cls-19" x="157.66" y="483.37" width="85.87" height="6.67"/><polygon class="cls-19" points="467.77 596.33 474.02 596.33 507.79 346.23 501.12 346.23 467.77 596.33"/><polygon class="cls-19" points="589.07 596.33 582.81 596.33 549.05 346.23 555.72 346.23 589.07 596.33"/><rect class="cls-19" x="484.86" y="483.37" width="85.87" height="6.67"/><polygon class="cls-15" points="288.54 208.69 289.37 234.11 177.66 236.61 176.41 212.02 288.54 208.69"/><path class="cls-20" d="M163.76,382.17H588.5a6.67,6.67,0,0,1,6.67,6.67h0a6.67,6.67,0,0,1-6.67,6.67H163.76a6.67,6.67,0,0,1-6.67-6.67h0A6.67,6.67,0,0,1,163.76,382.17Z" transform="translate(-3.6 -44.27)"/><path class="cls-13" d="M268.8,613.92h52.52l8.75-115s.42-16.67-.83-24.59c0,0,21.67,14.17,26.67,16.67l-1.53,114.41s35.3,8.13,51.55,3.13l5.84-124.63s4.16-31.26-20-51.27l-44-36.94-114.14-.39s-12,45.67,12.63,71.93l24.55,24.46a9.78,9.78,0,0,1,2.87,7.36Z" transform="translate(-3.6 -44.27)"/><path class="cls-9" d="M329.24,474.29s1.25-15-10.42-32.1l-22.51-37.1s47.41,37.75,66.15,58.75a26.32,26.32,0,0,1,6.68,17.83l-1.61,126a108.33,108.33,0,0,1-13.15-2.32L355.91,491Z" transform="translate(-3.6 -44.27)"/><path class="cls-21" d="M299.43,258.88,255,269.21s-21.67.42-28.34,23.76l-9.8,51.48,23.55,16.88,19.33,20.81H383l-6.7-81.25s-6.26-22.63-49.4-32.36Z" transform="translate(-3.6 -44.27)"/><path class="cls-9" d="M262.13,291.72l-2,35.76-.35,54.66H290.5S271.3,328.82,262.13,291.72Z" transform="translate(-3.6 -44.27)"/><path class="cls-9" d="M348.38,382.14h19.29s-12.17-42.07-12.59-75.42Z" transform="translate(-3.6 -44.27)"/><rect class="cls-13" x="356.9" y="217.02" width="140.05" height="96.29" rx="10.48"/><rect class="cls-9" x="356.9" y="217.02" width="140.05" height="96.29" rx="10.34"/><path class="cls-17" d="M438.19,242.27a1.88,1.88,0,0,1-.54,1.15,2,2,0,0,1-1.13.58l-13.08,1.87s4.17.83,4.17,3.33c0,0,.83,1.67-1.67,3.34a4.84,4.84,0,0,1-.42,5.42s1.07,2.68-.5,3.42l-29.51-.09s10-18.76,26.26-20.84l14-.35h.44a2,2,0,0,1,2,2C438.2,242.17,438.19,242.22,438.19,242.27Z" transform="translate(-3.6 -44.27)"/><path class="cls-22" d="M438.19,242.27a1.88,1.88,0,0,1-.54,1.15,2,2,0,0,1-1.13.58l-13.08,1.87a20.38,20.38,0,0,0-12.51,3.33c2.92-5.83,15.84-5.83,15.84-5.83,5.89-.42,8.17-1.9,9-3.27h.44a2,2,0,0,1,2,2C438.2,242.17,438.19,242.22,438.19,242.27Z" transform="translate(-3.6 -44.27)"/><path class="cls-23" d="M424.27,253.37,418,259.62s-1.43,1.43-8,1.76" transform="translate(-3.6 -44.27)"/><path class="cls-17" d="M326.74,253.37v17.3a13.55,13.55,0,0,1-27.1,0V244.2l4.4-1.85Z" transform="translate(-3.6 -44.27)"/><path class="cls-22" d="M326.74,253.37v12.31c-3.71-.17-13.63-1.85-19.8-14.66Z" transform="translate(-3.6 -44.27)"/><ellipse class="cls-7" cx="333.14" cy="182.22" rx="7.5" ry="10.63"/><ellipse class="cls-9" cx="332.31" cy="183.05" rx="5.42" ry="7.68"/><path class="cls-17" d="M309.92,205.23h0a19.38,19.38,0,0,1,24.93,11.38l6,16a19.37,19.37,0,0,1-11.38,24.93h0a19.38,19.38,0,0,1-24.94-11.37l-6-16A19.38,19.38,0,0,1,309.92,205.23Z" transform="translate(-3.6 -44.27)"/><path class="cls-13" d="M290.37,238.6s-10.58-12.88-3-30.88a8.19,8.19,0,0,1,3.14-3.79,5.68,5.68,0,0,1,6.25-.16,2.94,2.94,0,0,1,.09-.61,11.75,11.75,0,0,1,13.63-9.53l.22,0A51.82,51.82,0,0,0,327,194a18.89,18.89,0,0,0,2.69-.56c3.13-.86,13.41-2.65,14.11,11.12,0,0,2.45,7.25-8.57,12.59l-1.67-3.54a16.54,16.54,0,0,0-3.35-4.1s-11.41,9.64-25.59,7.14l-1.6,5Z" transform="translate(-3.6 -44.27)"/><path class="cls-17" d="M299,235h6v12.09h-6a6,6,0,0,1-6-6h0a6,6,0,0,1,5.91-6.09Z" transform="translate(-3.6 -44.27)"/><path class="cls-24" d="M297.56,222.94s-2.55-21,13.1-29.27l3.55.61s-12,12.12-9.12,28.31Z" transform="translate(-3.6 -44.27)"/><ellipse class="cls-16" cx="298.13" cy="188.89" rx="8.34" ry="11.88"/><ellipse class="cls-7" cx="293.96" cy="188.89" rx="8.34" ry="10.21"/><ellipse class="cls-9" cx="293.33" cy="188.47" rx="5.63" ry="7.29"/><ellipse class="cls-25" cx="242.06" cy="310.81" rx="31.05" ry="30.84"/><path class="cls-17" d="M300.06,359.24s-71.69,39.19-80,2.5c0,0-7.09-28.34,24.17-28.34,0,0,23.76-.42,58.36,6.67L338,347.38a14.26,14.26,0,0,1,8.19,5l15.49,19a1.76,1.76,0,0,1-.26,2.48,2,2,0,0,1-.24.16h0a1.75,1.75,0,0,1-2.06-.23L341.74,358l3.11,8.29a5.73,5.73,0,0,1-.45,5c-1,1.56-2.87,2.92-6.41,2.09,0,0-2.5,2.5-6.67,0,0,0-3.51,2.1-12.15,2.45a1,1,0,0,1-.74-1.8c1.6-1.52,4.12-3.41,6.64-3.16l-2.5-5.83S305.89,367.58,300.06,359.24Z" transform="translate(-3.6 -44.27)"/><path class="cls-23" d="M330.9,352.16s9.17-.84,10.84,5.83" transform="translate(-3.6 -44.27)"/><path class="cls-23" d="M327.15,353.83l5.08,2.43a8.69,8.69,0,0,1,4.92,7.13l.84,10" transform="translate(-3.6 -44.27)"/><path class="cls-23" d="M331.32,373.42,331,366.8a7.44,7.44,0,0,0-2.77-5.52l-4-3.29" transform="translate(-3.6 -44.27)"/><rect class="cls-13" x="364.4" y="217.02" width="140.05" height="96.29" rx="13.87"/><rect class="cls-25" x="457.35" y="226.61" width="7.09" height="21.26" rx="3.54"/><rect class="cls-25" x="468.19" y="226.61" width="7.09" height="21.26" rx="3.54"/><rect class="cls-25" x="479.44" y="226.61" width="7.09" height="21.26" rx="3.54"/><path class="cls-26" d="M423,309.23l15.84,68.35H390.52a2.51,2.51,0,0,0-2.52,2.5v0h0a2.51,2.51,0,0,0,2.51,2.51H461a6.11,6.11,0,0,0,6.13-6.07,5.86,5.86,0,0,0-.13-1.26l-13.5-65.64Z" transform="translate(-3.6 -44.27)"/><polygon class="cls-9" points="419.42 264.96 419.08 313.15 430.46 313.49 419.42 264.96"/><path class="cls-27" d="M110.28,515.35c-10.52-21.61-29-32.71-49.66-26.59s-23.95,35.06-8.4,42.36,31-14,39.14-18.4S110.28,515.35,110.28,515.35Z" transform="translate(-3.6 -44.27)"/><path class="cls-13" d="M120.46,573c0-2.61-.17-5.22-.26-7.83q-.27-7.8-.56-15.59c-.34-9.52-1.37-18.85-5.3-27.63a42.94,42.94,0,0,0-16.68-19.21A35.17,35.17,0,0,0,88.89,499a20.42,20.42,0,0,0-10.23-5.63,41.59,41.59,0,0,0-14.59-.38c-.19,0-.17.31,0,.27a34.88,34.88,0,0,1,13.79,1,28.43,28.43,0,0,1,5.56,2.15,25.31,25.31,0,0,1,3.21,2,29.63,29.63,0,0,0-12.68.12,27.31,27.31,0,0,0-4.4,1.45,13.25,13.25,0,0,0-3.44-.31,21.25,21.25,0,0,0-4.49.65A33.25,33.25,0,0,0,53.09,504c-.16,0,0,.31.15.22A32.7,32.7,0,0,1,61.55,501a29.56,29.56,0,0,1,4.29-.62,23.42,23.42,0,0,1,2.37,0,27.44,27.44,0,0,0-13.4,13.35c0,.16.16.31.24.14a25.37,25.37,0,0,1,17.09-13.69c.47-.1.94-.16,1.4-.25-.11.69-.18,1.39-.22,2.08-.15,1.05-.33,2.1-.53,3.14a53.15,53.15,0,0,1-1.68,6.33,50,50,0,0,1-2.59,6.13,28.84,28.84,0,0,1-3.52,6,.15.15,0,0,0,0,.2.15.15,0,0,0,.2,0,.16.16,0,0,0,.06-.08c1.25-2,2.7-3.75,3.84-5.78a42.56,42.56,0,0,0,2.81-6,40.45,40.45,0,0,0,1.81-6.48,34.58,34.58,0,0,0,.54-3.51,7.84,7.84,0,0,0,.15-2.16,28.7,28.7,0,0,1,7.35-.14c-.92,5.16-1.9,10.54-4.8,15-.09.14.17.29.26.13a61.35,61.35,0,0,0,3.62-7.37,28.19,28.19,0,0,0,1.81-7.68,34.27,34.27,0,0,1,12.17,4.07A40.34,40.34,0,0,1,111,521.52a67.16,67.16,0,0,1,6,25.35c.69,11,.83,22.17,1.94,33.18,0,.72,1.21,1,1.34.14A41.12,41.12,0,0,0,120.46,573Z" transform="translate(-3.6 -44.27)"/><path class="cls-13" d="M96.15,500.88a12.27,12.27,0,0,0-2.39-2.16c-.87-.7-1.81-1.39-2.68-2a19.86,19.86,0,0,0-6-2.77c-.18,0-.26.24,0,.27a15.72,15.72,0,0,1,5.88,2.9,26.29,26.29,0,0,1,2.55,2.05,14.89,14.89,0,0,0,2.41,2C96.06,501.22,96.26,501,96.15,500.88Z" transform="translate(-3.6 -44.27)"/><path class="cls-13" d="M62.6,508.72a64.2,64.2,0,0,0-4.84,6.3,40.4,40.4,0,0,0-3.62,7.12s.09.1.13,0a85.37,85.37,0,0,1,8.49-13.35C62.91,508.77,62.71,508.57,62.6,508.72Z" transform="translate(-3.6 -44.27)"/><path class="cls-13" d="M85.22,506.58a15.65,15.65,0,0,1-1.2,3.89A25.16,25.16,0,0,1,82,514s0,.15.11,0a14,14,0,0,0,3.35-7.41C85.51,506.47,85.23,506.4,85.22,506.58Z" transform="translate(-3.6 -44.27)"/><path class="cls-28" d="M119,515.87s14.89-18.71,43.7-12.08c27.3,6.32,39.84,56.39,12.31,62.39s-22.82-40.3-32.87-48.23C134.76,512.19,124.13,513.43,119,515.87Z" transform="translate(-3.6 -44.27)"/><path class="cls-13" d="M184.8,531.15a56.62,56.62,0,0,0-5.92-4.54,26,26,0,0,0-6.31-3.15,39.57,39.57,0,0,0-3.74-4.82,37.3,37.3,0,0,0-8.7-6.92H161a43.92,43.92,0,0,1,4.59,0,25.12,25.12,0,0,1,8.85,2.21c.16,0,.29-.18.13-.25a40.26,40.26,0,0,0-8.86-2.68,25,25,0,0,0-4.49-.38,13.87,13.87,0,0,0-2.41.14h-.47a37.68,37.68,0,0,0-8.31-3,4.52,4.52,0,0,0,.8-.22,38.06,38.06,0,0,1,4.25-.71,33.46,33.46,0,0,1,8.6.13c.19,0,.22-.24,0-.25a53.69,53.69,0,0,0-8.69-.37,36.1,36.1,0,0,0-7.24,1,38.53,38.53,0,0,0-5.25-.6c-10-.44-20.94,3.31-27.17,11.55s-7.37,19.23-8.45,29.19a221.37,221.37,0,0,0-.94,41.82c0,.81,1.21.67,1.24-.11.38-11.81.8-23.54,1.92-35.39.53-5.43,1.11-10.86,2-16.3a48.14,48.14,0,0,1,4-13.43,24.52,24.52,0,0,1,9.69-10.43,32.54,32.54,0,0,1,13.74-4.24,37.43,37.43,0,0,1,12.9,1.21,8.45,8.45,0,0,0,0,2.56,14,14,0,0,0,.63,3.13,15.65,15.65,0,0,0,1.2,2.79c.52,1,1.19,1.81,1.81,2.8,0,.15.32,0,.21-.16A13.31,13.31,0,0,1,153,516a25.68,25.68,0,0,1-.35-2.91v-2.23a38.15,38.15,0,0,1,12.55,6.63,24.55,24.55,0,0,1,2,1.81,13.87,13.87,0,0,0-2.45,3,29.52,29.52,0,0,0-2.55,4.56,38.79,38.79,0,0,0-2.73,9.87c0,.18.23.24.25,0a28.76,28.76,0,0,1,3.28-9.47,38.19,38.19,0,0,1,2.55-4.2c.47-.69,1-1.38,1.5-2,.28-.34.58-.7.86-1.1a39.19,39.19,0,0,1,8.14,11.48h0a19.57,19.57,0,0,0-3.36,4.85A43.39,43.39,0,0,0,170,542a97.68,97.68,0,0,0-3.44,11.72.14.14,0,0,0,.08.18.15.15,0,0,0,.19-.08.17.17,0,0,0,0-.1A49.13,49.13,0,0,1,171,542.18c.87-1.81,1.81-3.62,2.74-5.32a50.09,50.09,0,0,0,2.69-5,37.21,37.21,0,0,1,3.28,13.31c0,.19.29.17.27,0a46.6,46.6,0,0,0-6.44-20.42,55.29,55.29,0,0,1,5.19,2.39,29.32,29.32,0,0,1,6,4.18C184.76,531.48,184.94,531.32,184.8,531.15Z" transform="translate(-3.6 -44.27)"/><path class="cls-13" d="M163.72,532.2c-.85,2.85-1.94,5.6-2.72,8.46a32.75,32.75,0,0,0-1.27,8.46h.13A83.2,83.2,0,0,1,164,532.3a.15.15,0,0,0-.28-.1Z" transform="translate(-3.6 -44.27)"/><path class="cls-13" d="M181.94,525.18a16.35,16.35,0,0,0-3.83-2.72,26.46,26.46,0,0,0-4.4-1.56c-.16,0-.21.22,0,.26A17.53,17.53,0,0,1,178,523a31,31,0,0,1,3.89,2.39S182,525.25,181.94,525.18Z" transform="translate(-3.6 -44.27)"/><path class="cls-29" d="M133.13,490.88s2.76-33.61,27.75-44.49c20.86-9.06,32.81,14.34,18.1,28.7C167,486.7,147.86,481.46,133.13,490.88Z" transform="translate(-3.6 -44.27)"/><path class="cls-13" d="M174.31,452.89a105.58,105.58,0,0,0-11.12,5.27,81,81,0,0,0-8.62,5.72c.42-.85.78-1.81,1.2-2.57a42.78,42.78,0,0,1,2.12-3.8,35.78,35.78,0,0,1,5.43-7c.13-.1,0-.3-.2-.18a57.18,57.18,0,0,0-5.79,6.74,42.46,42.46,0,0,0-2.38,3.8,15.72,15.72,0,0,0-1.68,3.88l-.27.2a82.91,82.91,0,0,0-11.94,11.68,3.45,3.45,0,0,1,.22-1c.47-1.65,1-3.26,1.52-4.89a41.66,41.66,0,0,1,4.51-9.8.13.13,0,0,0-.05-.18h0a.13.13,0,0,0-.18.05h0a77.18,77.18,0,0,0-5.24,9.57,36.82,36.82,0,0,0-1.81,5,21.75,21.75,0,0,0-.81,3.37c-1.09,1.37-2.18,2.77-3.17,4.21-10.74,15.27-16.12,33.74-17.4,52.23a154.88,154.88,0,0,0-.29,16.55,104.23,104.23,0,0,0,1.46,16.63.31.31,0,0,0,.4.18h0a.32.32,0,0,0,.2-.27c-.11-4.86-.62-9.71-.71-14.49a142.33,142.33,0,0,1,.47-14.6,136.32,136.32,0,0,1,5.44-28.59,102.3,102.3,0,0,1,12.67-26.89c1.05-.22,2.1-.51,3.14-.76l3.74-1a37.82,37.82,0,0,0,7-2.55c.16,0,0-.33-.15-.24a22.12,22.12,0,0,1-7.06,2.45c-2,.38-4,.63-5.94,1.08a89.26,89.26,0,0,1,5.81-7.64A43,43,0,0,0,159,474a60.71,60.71,0,0,0,7.24-2.26c2.5-1,4.87-2.21,7.34-3.24.18,0,0-.35-.11-.26A41.88,41.88,0,0,1,159,473a88.14,88.14,0,0,1-13.47,1.1c1.81-2,3.62-4,5.56-5.88a65.5,65.5,0,0,1,23-15C174.57,453.09,174.47,452.82,174.31,452.89Z" transform="translate(-3.6 -44.27)"/><path class="cls-13" d="M154,453a36.79,36.79,0,0,0-3.06,4.47,24.22,24.22,0,0,0-2.21,5.22h.1c.84-1.65,1.54-3.36,2.38-5a25.39,25.39,0,0,1,3-4.55C154.28,453.05,154.08,452.85,154,453Z" transform="translate(-3.6 -44.27)"/><path class="cls-13" d="M177.17,464.19a25.51,25.51,0,0,1-5.12,2.13,44.63,44.63,0,0,1-5.22,1.4v.14a25.25,25.25,0,0,0,5.44-1.17,47.85,47.85,0,0,0,5-2.27C177.52,464.31,177.37,464.1,177.17,464.19Z" transform="translate(-3.6 -44.27)"/><path class="cls-29" d="M113.79,484.83c-.14,1.47-3.78-12.2-24.9-24.32-19.28-11-42.1-39.66-23.38-57.77C80.71,388.26,120.71,420,113.79,484.83Z" transform="translate(-3.6 -44.27)"/><path class="cls-13" d="M128.28,563.13a370.46,370.46,0,0,0-3.35-42.48,190.69,190.69,0,0,0-8.93-38c-1.57-4.45-3.37-8.82-5.3-13.13a32.1,32.1,0,0,0,0-5c-.11-2.16-.31-4.31-.51-6.45s-.4-4.29-.67-6.43-.71-4.27-.8-6.41a.13.13,0,0,0-.12-.13.13.13,0,0,0-.13.13h0a44.47,44.47,0,0,1,.74,6.81c.16,2.07.29,4.15.34,6.23s0,4.15,0,6.23v2.35q-3-6.3-6.42-12.36c1.43-8.77-.44-17.91-2.21-26.48,0-.18-.31,0-.27,0A75,75,0,0,1,102,441.55c0,3.62,0,7.25-.11,10.87-.51-.87-1-1.72-1.52-2.57q-4.11-6.74-8.78-13.13a20.66,20.66,0,0,0-.2-6.23,50,50,0,0,0-1.54-6.83q-1-3.35-2.34-6.59c-.9-2.23-2.13-4.33-3-6.56a.13.13,0,0,0-.17-.06.12.12,0,0,0-.07.17h0a33.24,33.24,0,0,1,2.52,6.61,60,60,0,0,1,1.72,6.58c.45,2.22.83,4.45,1.12,6.7.22,1.48.35,3,.6,4.52a161.62,161.62,0,0,0-14.79-17.22c-.13-.13-.31,0-.19.2a196.64,196.64,0,0,1,21.48,29.28l.69,1.18c-1.18-.72-2.5-1.3-3.62-1.92l-6.16-3.39c-2-1.06-4-2.17-6-3.27-1-.57-2-1.16-3.08-1.69a25,25,0,0,1-3.62-2c-.15-.11-.33.13-.15.22,2,1.12,3.82,2.79,5.8,4s4,2.48,6,3.62c3.75,2.1,7.82,3.62,11.53,5.77,2.56,4.48,4.93,9.06,7.1,13.78q-3.36-2.14-6.86-4.11c-1.49-.83-3-1.66-4.51-2.46a22.76,22.76,0,0,1-4.26-2.57c-.14-.11-.32,0-.2.2a40.36,40.36,0,0,0,8.13,5.65c2.72,1.59,5.44,3.11,8.28,4.51A156.47,156.47,0,0,1,112,480c8.89,25.17,12.15,51.92,13.71,78.46.47,7.92.71,15.83.81,23.76s-.32,15.81-.3,23.73a.22.22,0,0,0,.25.16.22.22,0,0,0,.16-.16c1-7,1.13-14.17,1.43-21.23S128.41,570.32,128.28,563.13Z" transform="translate(-3.6 -44.27)"/><path class="cls-13" d="M89.85,449.12a100.94,100.94,0,0,1-11.22-5.81A117.78,117.78,0,0,1,68,436.55s-.13,0,0,.09a87.14,87.14,0,0,0,10.23,7.25,106.1,106.1,0,0,0,11.59,5.54C89.89,449.43,90,449.19,89.85,449.12Z" transform="translate(-3.6 -44.27)"/><path class="cls-13" d="M96,420.65c-.32-1.23-.7-2.42-1.12-3.62a.09.09,0,0,0,0-.12c-.27-.69-.54-1.36-.83-2a1.13,1.13,0,0,0,0-.26l-.17-.38h0l.22.69a2.62,2.62,0,0,0,.11.4,99.1,99.1,0,0,1,3.13,14.34.13.13,0,0,0,.13.13h0a.12.12,0,0,0,.12-.12h0A47.93,47.93,0,0,0,96,420.65Z" transform="translate(-3.6 -44.27)"/><polygon class="cls-13" points="146.97 523.97 145.47 541.85 140.85 596.35 91.41 596.35 86.8 541.85 85.29 523.97 146.97 523.97"/><polygon class="cls-9" points="146.97 523.97 145.47 541.85 86.8 541.85 85.29 523.97 146.97 523.97"/><rect class="cls-13" x="80.44" y="516.8" width="71.38" height="17.15"/><rect class="cls-24" x="225.64" y="120.22" width="45.05" height="25.07" rx="5.07"/><polygon class="cls-24" points="252.17 143.39 269.14 156.73 258.62 142.43 252.17 143.39"/><path class="cls-30" d="M261.83,177a1.47,1.47,0,0,1,1.47-1.47h0a1.48,1.48,0,1,1-1.49,1.47Z" transform="translate(-3.6 -44.27)"/><path class="cls-30" d="M254.14,177a1.47,1.47,0,0,1,1.47-1.47h0a1.48,1.48,0,1,1-1.49,1.47Z" transform="translate(-3.6 -44.27)"/><path class="cls-30" d="M246.45,177a1.47,1.47,0,0,1,1.47-1.47h0a1.48,1.48,0,1,1-1.49,1.47Z" transform="translate(-3.6 -44.27)"/><path class="cls-30" d="M238.76,177a1.47,1.47,0,0,1,1.47-1.47h0a1.48,1.48,0,1,1-1.49,1.47Z" transform="translate(-3.6 -44.27)"/></svg>