<?xml version="1.0" encoding="utf-8"?>
<!-- Generator: Adobe Illustrator 26.0.1, SVG Export Plug-In . SVG Version: 6.00 Build 0)  -->
<svg version="1.1" id="e7c88749-d58a-49ce-b062-fe04743ade97"
	 xmlns="http://www.w3.org/2000/svg" xmlns:xlink="http://www.w3.org/1999/xlink" x="0px" y="0px" viewBox="0 0 865.8 682.9"
	 style="enable-background:new 0 0 865.8 682.9;" xml:space="preserve">
<style type="text/css">
	.st0{fill:#0071F2;}
	.st1{opacity:0.7;fill:#FFFFFF;enable-background:new    ;}
	.st2{fill:#2F2E41;}
	.st3{fill:#A30090;}
	.st4{opacity:0.43;fill:#F1F2F2;enable-background:new    ;}
	.st5{fill:#FFFFFF;}
	.st6{opacity:0.2;enable-background:new    ;}
	.st7{fill:#F1F2F2;}
	.st8{opacity:0.1;fill:#0071F2;enable-background:new    ;}
	.st9{fill:#F993F2;}
	.st10{opacity:0.24;fill:#F1F2F2;enable-background:new    ;}
	.st11{opacity:0.21;fill:#FFFFFF;enable-background:new    ;}
	.st12{opacity:0.39;fill:#0071F2;enable-background:new    ;}
	.st13{fill:#BCBEC0;}
	.st14{fill:#D1D3D4;}
	.st15{fill:#A7A9AC;}
	.st16{fill:#F9B499;}
	.st17{fill:#09447F;}
	.st18{fill:#E6E7E8;}
	.st19{fill:none;}
	.st20{fill:#F7A48B;}
	.st21{fill:#CC11C3;}
	.st22{fill:none;stroke:#ED1C24;stroke-width:0.5;stroke-miterlimit:10;}
	.st23{opacity:0.2;fill:#FFFFFF;enable-background:new    ;}
	.st24{opacity:0.3;fill:#FFFFFF;enable-background:new    ;}
	.st25{fill:#661496;}
	.st26{opacity:0.2;fill:none;stroke:#000000;stroke-miterlimit:10;enable-background:new    ;}
	.st27{font-family:'MyriadPro-Regular';}
	.st28{font-size:12px;}
</style>
<ellipse transform="matrix(2.111690e-02 -0.9998 0.9998 2.111690e-02 -254.1367 904.5729)" class="st0" cx="334.9" cy="582.1" rx="53.9" ry="278.4"/>
<ellipse transform="matrix(2.111690e-02 -0.9998 0.9998 2.111690e-02 -254.1367 904.5729)" class="st1" cx="334.9" cy="582.1" rx="53.9" ry="278.4"/>
<path class="st0" d="M113.9,415.2c0,0-87.8-82.8-39.6-192.8c13.6-30.5,34.9-56.9,62-76.4c60.4-44.1,213.1-131.3,442.9-97.6
	c24.7,3.5,48.3,12.4,69.2,26c33.7,22.1,69.5,62.8,54.3,132.4c-5.4,24.6-4.2,50.3,4.7,73.9c8.8,23.4,25.4,52,56.3,83
	c0,0,66,63.7,1.8,118.9c-13.7,11.7-29.9,20-47.4,24.4C638.2,527.2,314.7,595.2,113.9,415.2z"/>
<path class="st1" d="M113.9,415.2c0,0-87.8-82.8-39.6-192.8c13.6-30.5,34.9-56.9,62-76.4c60.4-44.1,213.1-131.3,442.9-97.6
	c24.7,3.5,48.3,12.4,69.2,26c33.7,22.1,69.5,62.8,54.3,132.4c-5.4,24.6-4.2,50.3,4.7,73.9c8.8,23.4,25.4,52,56.3,83
	c0,0,66,63.7,1.8,118.9c-13.7,11.7-29.9,20-47.4,24.4C638.2,527.2,314.7,595.2,113.9,415.2z"/>
<path class="st2" d="M495.7,316.1c0,0-2.2-0.7-5.7-2.2l0.4-0.9c3.4,1.5,5.5,2.2,5.6,2.2L495.7,316.1z M484.6,311.3
	c-1.8-0.9-3.6-1.9-5.3-2.9l0.5-0.9c1.7,1,3.5,1.9,5.3,2.8L484.6,311.3z M474.1,305.3c-1.7-1.1-3.4-2.2-5-3.4l0.6-0.8
	c1.6,1.1,3.3,2.3,5,3.4L474.1,305.3z M464.3,298.3c-1.6-1.3-3.1-2.6-4.6-3.9l0.7-0.7c1.5,1.3,3,2.6,4.5,3.9L464.3,298.3z
	 M455.4,290.2c-1.4-1.5-2.8-3-4-4.5l0.8-0.6c1.3,1.5,2.6,3,4,4.4L455.4,290.2z M447.6,281c-1.2-1.6-2.3-3.3-3.4-5l0.9-0.5
	c1,1.7,2.1,3.3,3.3,5L447.6,281z M441.3,270.7c-0.9-1.8-1.7-3.6-2.5-5.5l0.9-0.4c0.7,1.8,1.6,3.6,2.5,5.4L441.3,270.7z M436.8,259.5
	c-0.6-1.9-1.1-3.9-1.5-5.8l1-0.2c0.4,1.9,0.9,3.9,1.5,5.8L436.8,259.5z M434.2,247.8c-0.3-2-0.5-4-0.6-6l1-0.1c0.1,2,0.3,4,0.5,5.9
	L434.2,247.8z M434.6,235.8h-1c0-2,0.2-4,0.4-6l1,0.1C434.7,231.7,434.6,233.7,434.6,235.8L434.6,235.8z M435.6,223.9l-1-0.1
	c0.3-1.9,0.7-3.9,1.1-5.9l1,0.2C436.3,219.9,436,221.9,435.6,223.9L435.6,223.9z M438.2,212.2l-1-0.3c0.5-1.9,1.1-3.8,1.8-5.8l1,0.3
	C439.3,208.4,438.7,210.3,438.2,212.2L438.2,212.2z M442,200.8l-0.9-0.4c0.4-0.9,0.7-1.9,1.1-2.8c0.4-0.9,0.9-1.8,1.4-2.7l0.9,0.5
	c-0.5,0.8-1,1.7-1.4,2.6C442.7,199,442.3,199.9,442,200.8z M447.8,190.5l-0.8-0.6c1.2-1.6,2.5-3.1,3.9-4.6l0.7,0.7
	C450.2,187.4,448.9,189,447.8,190.5L447.8,190.5z M455.8,181.7l-0.7-0.7c1.4-1.4,3-2.7,4.5-4l0.6,0.8
	C458.7,179,457.1,180.4,455.8,181.7L455.8,181.7z M465,174.1l-0.6-0.8c1.6-1.1,3.3-2.3,5-3.4l0.5,0.8
	C468.2,171.9,466.5,173,465,174.1L465,174.1z M475,167.8l-0.5-0.9c1.7-1,3.5-1.9,5.3-2.8l0.4,0.9C478.5,165.9,476.7,166.8,475,167.8
	z M485.7,162.5l-0.4-0.9c1.8-0.8,3.7-1.6,5.6-2.3l0.4,0.9C489.4,160.9,487.5,161.7,485.7,162.5L485.7,162.5z M496.8,158.2l-0.3-0.9
	c1.9-0.6,3.8-1.2,5.7-1.8l0.3,1C500.6,156.9,498.7,157.5,496.8,158.2L496.8,158.2z M508.3,154.7l-0.2-1l0.3-0.1l0.2,1L508.3,154.7z"
	/>
<path class="st3" d="M682.8,425.8h116.8c4.2,0,7.7,3.4,7.7,7.6c0,0,0,0,0,0v29c0,36.9-29.9,66.8-66.8,66.8c0,0,0,0,0,0h-57.6l0,0
	V425.8L682.8,425.8z"/>
<circle class="st4" cx="734.5" cy="475.6" r="32.1"/>
<path class="st5" d="M745.4,472.8c0-6.4-5.2-11.6-11.6-11.6c-6.4,0-11.6,5.2-11.6,11.6c0,4.7,2.9,9,7.2,10.7v15.2
	c0,2.7,2.2,4.8,4.8,4.8c2.7,0,4.8-2.2,4.8-4.8v-15.6C743,481.1,745.4,477.1,745.4,472.8z"/>
<path class="st0" d="M722.3,378.7h34.3c8.8,0,16,7.2,16,16v34.7h-16.1l-0.3-27.8c0-4-3.3-7.2-7.3-7.2h-27.6L722.3,378.7z"/>
<path class="st2" d="M703.1,543.7l-199.6-5.2l31.1-394.7c0.6-7.2,6.5-12.7,13.7-12.6l186.5,0.9c5.9,0,10.7,4.8,10.6,10.7
	c0,0.3,0,0.6,0,0.8l-32.2,390.9C712.8,539.8,708.3,543.8,703.1,543.7z"/>
<path class="st6" d="M703.1,543.7l-199.6-5.2l31.1-394.7c0.6-7.2,6.5-12.7,13.7-12.6l186.5,0.9c5.9,0,10.7,4.8,10.6,10.7
	c0,0.3,0,0.6,0,0.8l-32.2,390.9C712.8,539.8,708.3,543.8,703.1,543.7z"/>
<path class="st2" d="M683.7,543.7l-199.6-5.2l31.1-394.7c0.6-7.2,6.5-12.7,13.7-12.6l186.5,0.9c5.9,0,10.7,4.8,10.6,10.7
	c0,0.3,0,0.6,0,0.8l-32.2,391C693.4,539.8,689,543.8,683.7,543.7z"/>
<path class="st2" d="M743.5,219.1l-4.3,48.5c-1.9,9-9.5,7.3-12.2,6.4c-0.6-0.2-0.9-0.7-0.9-1.3l0.5-6.8l3.8-53.5
	c0.1-0.9,0.8-1.7,1.7-1.8c2.2-0.3,4.4-0.1,6.5,0.7c1.3,0.5,2.5,1.4,3.4,2.5C743.1,215.2,743.7,217.1,743.5,219.1z"/>
<path class="st6" d="M743.5,219.1l-4.3,48.5c-1.9,9-9.5,7.3-12.2,6.4c-0.6-0.2-0.9-0.7-0.9-1.3l0.5-6.8c3-0.1,7.8-1.2,8.2-7.6
	l3.7-47.1c1.3,0.5,2.5,1.4,3.4,2.5C743.1,215.2,743.7,217.1,743.5,219.1z"/>
<path class="st7" d="M668,136.4h45.2c3.9,0,7,3.1,7,7c0,0.2,0,0.4,0,0.6l-31.3,389c-0.2,3-2.8,5.3-5.8,5.2l-194-3.3l32.9-392.2
	c0.3-3.6,3.3-6.3,6.9-6.3h33.9c1.1,0,2,0.5,2.6,1.4l5.9,9.4c1.4,2.8,4.3,4.6,7.4,4.6H651c2.1,0,4.1-0.6,5.8-1.7
	c4.1-2.9,7.1-7,8.6-11.7C665.7,137.2,666.8,136.4,668,136.4z"/>
<path class="st7" d="M593.7,139.9h31.4c1.5,0,2.7,1.2,2.7,2.6v0c0,1.5-1.2,2.6-2.7,2.6h-31.4c-1.5,0-2.7-1.2-2.7-2.6v0
	C591.1,141.1,592.3,139.9,593.7,139.9z"/>
<path class="st7" d="M633.8,139.9h3.9c1.5,0,2.7,1.2,2.7,2.6v0c0,1.5-1.2,2.6-2.7,2.6h-3.9c-1.5,0-2.7-1.2-2.7-2.6v0
	C631.2,141.1,632.3,139.9,633.8,139.9z"/>
<path class="st8" d="M670.2,136.4c0,0-4.7,22.1-18.5,22.6h-77.3c0,0-23.8-5.9-27,31.4l-38.5,344.8l174.2,3c0,0,5.4-1.4,5.8-5.2
	L720.2,144c0,0,0.1-7.6-7-7.6L670.2,136.4z"/>
<circle class="st2" cx="683.8" cy="174.1" r="18.9"/>
<circle class="st6" cx="682.8" cy="174.1" r="18.9"/>
<path class="st2" d="M564.4,168.4h-29.3c-0.6,0-1-0.4-1-1s0.4-1,1-1h29.3c0.6,0,1,0.4,1,1S564.9,168.4,564.4,168.4z"/>
<path class="st2" d="M562.6,177.5h-29.3c-0.6,0-1-0.4-1-1s0.4-1,1-1h29.3c0.6,0,1,0.4,1,1S563.1,177.5,562.6,177.5z"/>
<path class="st2" d="M562,186.5h-29.2c-0.6,0-1-0.4-1-1s0.4-1,1-1H562c0.6,0,1,0.4,1,1S562.6,186.5,562,186.5z"/>
<path class="st8" d="M518.5,435.6l152.7-1.2c9-0.1,16.4-7,17.1-15.9l13.5-175.1c0.5-6-4-11.2-10-11.6c-0.3,0-0.5,0-0.8,0l-156.8-1.2
	c-5.7,0-10.4,4.3-10.9,9.9l-15.8,183.5c-0.5,6,3.9,11.2,9.9,11.7C517.9,435.6,518.2,435.7,518.5,435.6z"/>
<path class="st5" d="M526.3,406.8h145.8c3.2,0,5.9,2.6,5.9,5.9v0c0,3.2-2.6,5.9-5.9,5.9H526.3c-3.2,0-5.9-2.6-5.9-5.9v0
	C520.4,409.4,523,406.8,526.3,406.8z"/>
<path class="st9" d="M689.7,301.3l-8.1,83.2c-0.4,4.6-4.3,8.2-9,8.2H530c-4.9,0-8.9-4-8.9-8.9c0-0.3,0-0.6,0-0.9l7.9-81.6l78.2-50.8
	c4.4-2.9,10.1-2.7,14.3,0.4L689.7,301.3z"/>
<path class="st6" d="M529,301.3h160.6l-79.9,30.1c-2.8,1.1-5.9,1-8.7-0.1L529,301.3z"/>
<path class="st5" d="M606,365.2c1.6-0.5,2.7-1.8,3-3.5c0.4-2.9-1.6-5.6-4.5-6c-0.4-0.1-0.8-0.1-1.1,0c-1.3,0-2.6,0.5-3.6,1.3
	c-4.3,4.3,0,8.1,0,8.1l-0.5,8.7c-0.1,1.7,1.2,3.1,2.9,3.1c0,0,0.1,0,0.1,0l0,0c1.5,0,2.8-1.2,3-2.7L606,365.2z"/>
<polygon class="st10" points="497.9,428.9 712.7,236.4 706.5,313.2 492.9,488.4 "/>
<polygon class="st10" points="538.4,535.8 699.5,400.4 692.4,488.4 624.4,537.2 "/>
<path class="st11" d="M599.5,277.8h-47.1c-4.7,0-8.6-3.9-8.6-8.6c0-0.3,0-0.6,0.1-1l4.9-43.1c0.5-4.7,4.5-8.2,9.2-8.2h115.5
	c5.1,0,9.3,4.2,9.3,9.3c0,0.3,0,0.6,0,0.8l-4.1,43c-0.4,4.4-4.1,7.8-8.5,7.8h-55.5c-0.9,0-1.7,0.4-2.1,1.2l-6,9.9
	c-0.3,0.5-0.9,0.6-1.4,0.4c-0.2-0.1-0.4-0.3-0.5-0.6l-2.9-9.2C601.5,278.5,600.5,277.8,599.5,277.8z"/>
<path class="st12" d="M605.7,289.8h-0.2c-0.6-0.1-1.1-0.4-1.3-1l-2.9-9.2c-0.3-0.8-1-1.4-1.9-1.4h-47.1c-5,0-9.1-4.1-9.1-9.1
	c0-0.3,0-0.7,0.1-1l4.9-43.1c0.6-4.9,4.7-8.7,9.7-8.7h115.5c5.4,0,9.8,4.4,9.8,9.8c0,0.3,0,0.6,0,0.9l-4.1,42.9
	c-0.4,4.7-4.3,8.2-9,8.2h-55.5c-0.7,0-1.3,0.4-1.7,0.9l-6,9.9C606.7,289.5,606.2,289.8,605.7,289.8z M558,217.4
	c-4.5,0-8.2,3.4-8.7,7.8l-4.9,43.1c-0.5,4.4,2.7,8.4,7.1,8.9c0.3,0,0.6,0,0.9,0.1h47.1c1.3,0,2.4,0.8,2.8,2.1l2.9,9.2
	c0.1,0.3,0.4,0.4,0.6,0.3c0.1,0,0.2-0.1,0.3-0.2l6-9.9c0.5-0.9,1.5-1.4,2.5-1.4h55.5c4.2,0,7.6-3.2,8-7.3l4.1-43
	c0.5-4.8-3.1-9.1-7.9-9.6c-0.3,0-0.6,0-0.9,0L558,217.4z"/>
<circle class="st2" cx="680.9" cy="174.1" r="18.9"/>
<ellipse class="st5" cx="680.9" cy="169" rx="7.8" ry="7.4"/>
<path class="st5" d="M670.2,189.7c0,0,0.7-7.6,5.8-10.5c2.7-1.6,6-1.4,8.5,0.5c2.2,1.6,4.4,4.9,4.6,11.4
	C689.2,191,679.3,196,670.2,189.7z"/>
<path class="st2" d="M735,341.7c-1.8-0.4-2.9-0.5-2.9-0.5l0.1-1c0,0,1.1,0.1,3,0.5L735,341.7z"/>
<path class="st2" d="M787,407.9c-0.1-1.9-0.2-3.9-0.4-5.7l1-0.1c0.2,1.9,0.3,3.8,0.4,5.8L787,407.9z M785.9,396.5
	c-0.3-1.9-0.7-3.8-1.1-5.6l1-0.2c0.4,1.8,0.8,3.8,1.1,5.7L785.9,396.5z M783.3,385.4c-0.6-1.8-1.2-3.6-1.9-5.4l0.9-0.4
	c0.7,1.8,1.3,3.6,1.9,5.5L783.3,385.4z M779.1,374.8c-0.8-1.7-1.8-3.4-2.8-5l0.8-0.5c1,1.6,2,3.3,2.8,5.1L779.1,374.8z M773.1,365.1
	c-1.2-1.5-2.4-3-3.7-4.4l0.7-0.7c1.3,1.4,2.6,2.9,3.7,4.4L773.1,365.1z M765.4,356.8c-1.4-1.3-2.9-2.5-4.4-3.6l0.6-0.8
	c1.6,1.1,3.1,2.4,4.5,3.6L765.4,356.8z M756.2,350c-1.6-1-3.3-1.9-5-2.7l0.5-0.9c1.7,0.9,3.4,1.8,5.1,2.8L756.2,350z M745.9,345
	c-1.8-0.7-3.6-1.3-5.4-1.9l0.3-1c1.8,0.5,3.7,1.2,5.5,1.9L745.9,345z"/>
<path class="st2" d="M788,416.7h-1c0-1,0-2,0.1-3h1C788,414.6,788,415.6,788,416.7z"/>
<path class="st2" d="M648.1,130.6l-0.2-1c0,0,2.3-0.5,5.8-1.5l0.3,1C650.4,130,648.1,130.6,648.1,130.6z M659.8,127.5l-0.3-1
	c2-0.6,3.9-1.2,5.8-1.7l0.3,1C663.7,126.3,661.7,126.9,659.8,127.5z M671.2,123.9l-0.3-0.9c2-0.7,3.9-1.4,5.7-2l0.3,0.9
	C675.1,122.5,673.2,123.2,671.2,123.9z M682.5,119.6l-0.4-0.9c2-0.8,3.8-1.7,5.4-2.5l0.5,0.9C686.3,117.9,684.5,118.7,682.5,119.6z
	 M693.3,114.1l-0.5-0.8c1.4-0.9,2.7-1.8,3.9-2.9l0.7,0.8C696,112.2,694.7,113.2,693.3,114.1z"/>
<polygon class="st0" points="701.6,99.1 733.5,105.3 708.2,106.6 715.3,120.4 741.6,106.8 697.6,88.8 "/>
<polygon class="st0" points="701.6,99.1 697.6,109.3 709.6,109.3 708.2,106.6 733.5,105.3 "/>
<polygon class="st6" points="701.6,99.1 697.6,109.3 709.6,109.3 708.2,106.6 733.5,105.3 "/>
<path class="st13" d="M513.5,455.5c0,0,28.6-8.5,39.3,5.4c0,0,23.8,34.9,31.8,62.7c0,0,29,60.9-58.4,63.4L513.5,455.5z"/>
<path class="st14" d="M470.6,468.5c0,0,55.1-25.1,67.4-6.9l7.4,15.1c-7.6-1.6-15.4-2.6-23.2-2.9l-57.1-3.1L470.6,468.5z"/>
<path class="st14" d="M487.8,587h36c0,0,44.9-6.3,40.5-48.4C564.3,538.6,558.5,578.8,487.8,587z"/>
<path class="st15" d="M545.5,476.8c0,0,8.8,3.3,12.3,20.5l5.7,25.1c0,0,14.3,53-75.7,64.6h-183c0,0,54.8-11.2,35.6-66.8l-15.7-35
	l124.6-14.3l15.9-0.2C465.2,470.7,531.5,473,545.5,476.8z"/>
<path class="st16" d="M490.2,535.1c-3.7,3.6-9.1,4.5-13.8,2.3l-19.3-14.6c-2.9-2.8-4.1-6.9-3-10.8l0,0l0,0l-4.9-6.5l8.7-8.2l3.2,3.1
	c3.5,5.2,7.7,9.8,12.6,13.7l0.1,0.1c5.9,4.8,12.3,9.1,19,12.7C497.7,529.8,490.2,535.1,490.2,535.1z"/>
<path class="st17" d="M504.5,538.6l-6.8,5.9c-8.7,6.3-23-4-23-4l3.5,6.7l-3,1.5l-17.7-21.4c-4.5-3.7-5.9-10-3.4-15.3
	c-1.1,3.9,0.1,8.1,3,10.8l19.3,14.6c4.6,2.2,10.1,1.2,13.8-2.3c0,0,7.5-5.3,2.7-8.3c-6.7-3.6-13.1-7.8-19-12.7
	c2,1.5,26.8,15.4,26.8,15.4C509.7,534.7,504.5,538.6,504.5,538.6z"/>
<path class="st6" d="M304.7,587c0,0,19.4-4.5,30.1-17.7c0,0,63.2-8.4,106.8-5.6l104.5,2.4c0,0-17.8,16.7-58.4,20.9H304.7z"/>
<path class="st14" d="M191.9,376.9l221.4-3.5c0,0,12.1-1.7,13.6,6.2l23.7,96.8l-138,9.6l-97.8-19.6L191.9,376.9z"/>
<path class="st18" d="M270.6,358.9l27.4-6.8l6.8,6.8l9,76.4c0,0,5.2,13.4,5.2,14s-17.5,3.5-17.6,3s-11.8-18.2-11.8-18.2L276,384.1
	L270.6,358.9z"/>
<path class="st19" d="M417.7,373.3c0,0,22.3-1.1,26.9,11.1l26,84l-5.4,2.3l-15.9,0.2l-22.4-91.2C426.9,379.7,426,373.1,417.7,373.3z
	"/>
<ellipse class="st16" cx="287" cy="306.6" rx="21.6" ry="32.2"/>
<ellipse class="st20" cx="265.7" cy="309.6" rx="4.9" ry="6.7"/>
<path class="st2" d="M245.6,356c0,0-20.2-13.1-7.5-30.4c0,0,16.8-19.1,20.2-29.8c0,0,6.2-28.2,31.7-22.7c0,0,10.2-0.2,23.1,9.3
	c0,0,5.9,3.7,0,5.8c0,0,6.6,17.3-5.9,46.4l-9.1,17.6l-9.5-5.6l0.2-7.8c0,0,12.8-0.7,18.3-19.4c0,0,4.7-15-1.3-29.4
	c0,0-9.6,6.6-19.4,12.9c0,0-17.9,13.1-24.6,2.9c-1.2,2.7-1,5.8,0.5,8.4c0.9,1.4,2.6,2.2,4.3,2.1v30.5L245.6,356z"/>
<path class="st16" d="M266.4,316.2v30.5c0,0,15.1,28.3,25.1,30.2c0.9,0.2,1.8-0.1,2.5-0.6c2.5-1.7,7.8-7.5,3.9-24.2l-9.5-5.6
	l0.2-7.8C288.7,338.7,272,340.9,266.4,316.2z"/>
<path class="st20" d="M288.6,338.7l-0.2,7.8c0,0-18.1-3-18.4-19.9C270.1,326.6,275.8,339.2,288.6,338.7z"/>
<path class="st21" d="M266.4,346.7l-20.8,9.3c0,0-5.9,2.8-10.5,15.3c0,0-33.4,53.6-14.4,63.2c0,0,9.6,8.4,41.6-3.1l4.2,16.6
	c0,0,22.1-6.5,35-8.2c0,0-0.7-28.6-8.4-43.5c0,0-14.8-30.8-17-34.1L266.4,346.7z"/>
<path class="st6" d="M262.9,352.3c0.1,4.4,0.2,8.8,0.3,13.2c0.1,4.4,0.1,8.8,0.1,13.2l-0.4-0.4c3.6,0.7,7.2,1.4,10.8,2.1l0.8,0.1
	l-0.4,0.6l-5.4,7.7v-0.5c2.7,3.1,5.3,6.2,8,9.4s5.3,6.3,7.9,9.4c-2.8-3-5.6-6-8.3-9s-5.5-6.1-8.2-9.1l-0.2-0.3l0.2-0.3l5.4-7.7
	l0.3,0.8c-3.6-0.7-7.2-1.5-10.8-2.2l-0.4-0.1v-0.4c0-4.4,0.1-8.8,0.1-13.2S262.8,356.7,262.9,352.3z"/>
<polyline class="st22" points="304.7,356 312.4,376.9 308.6,381.4 312.4,386.7 308.7,400.6 "/>
<path class="st21" d="M336,392l-4.3,29l-1.5,10.1c0,0-0.2,0-0.6,0c-1.5,0-5.6-0.9-7.4-9.2c-0.9-4.4-2.1-8.7-3.7-12.9l-1.5-4
	c0,0,0.9,19.2,9.3,27.8l-16.4,2.5c0,0-6-74.5-11.9-83.1c0,0,15,0.7,21.2,6.4C319.1,358.6,326.7,367.5,336,392z"/>
<path class="st6" d="M331.7,421l-1.5,10.1c0,0-0.2,0-0.6,0c-1.5,0-5.6-0.9-7.4-9.2c-0.9-4.4-2.2-8.7-3.7-12.9l-1.5-4
	c0-3.6,0.9-7.2,2.7-10.4C319.7,394.6,325.1,417.3,331.7,421z"/>
<path class="st6" d="M314.3,360.8c-0.2,1.4-0.2,2.9-0.1,4.3c0.1,1.4,0.3,2.8,0.6,4.2c0.6,2.8,1.6,5.5,2.9,8c1.3,2.7,2.2,5.5,2.6,8.4
	c0.2,1.5,0.3,2.9,0.2,4.4c-0.1,1.5-0.4,2.9-0.9,4.3c0.6-2.8,0.6-5.7,0-8.5c-0.6-2.8-1.5-5.5-2.8-8.1c-1.3-2.6-2.3-5.4-2.8-8.3
	C313.6,366.7,313.6,363.7,314.3,360.8z"/>
<path class="st6" d="M262.2,431.4l4.2,16.6l20.6-5.7v-7.6c0-3.1,0.9-6.1,2.5-8.7l-2.5,1.4c-8.8,4.2-10.5,0-10.5,0l-7.8,2.8
	c-3.4,0.4-1-4.4-1-4.4l-19.9,5.3c-27.7,5.9-33-9-33-9s-3.2,18.3,24.6,14.9C239.5,437.1,244.5,437.1,262.2,431.4z"/>
<path class="st6" d="M253.5,398.2c0,0,2.8-4.8,2.8-7.8l9.1,25.9h-6L253.5,398.2z"/>
<path class="st6" d="M255.5,368.7c0.9,3.7,1.4,7.5,1.7,11.3c0.1,1.9,0.2,3.8,0.1,5.7c0,1.9-0.2,3.8-0.6,5.7c0.1-1.9-0.1-3.8-0.1-5.7
	s-0.2-3.8-0.4-5.7C255.9,376.3,255.6,372.5,255.5,368.7z"/>
<path class="st16" d="M269.3,416.6l4.5,1.3c1.1,0.3,2.4,0.2,3.4-0.4l12.7-7.5c1.5-0.9,3.1-1.3,4.8-1.3l22.2,0.5c0,0,2.5,4.4-6.8,3.7
	c0,0,7.6,6.4,5.5,7.9c0,0-1.4,2.6-6.2-3.2c1.3,1.5,2.3,3.2,3,5.1c0.2,0.9-0.3,1.8-1.2,2c-0.3,0.1-0.6,0.1-0.9,0
	c-1.4-0.5-3.3-2.2-5.6-7.3c0,0,2.5,7.1-0.4,7.4c0,0-1.8,0.4-2.9-5.9c0,0-2.2-1.2-5.6,2.5c0,0-14.4,12.8-19.3,6.2l-7.8,2.8
	c0,0-3.3,0.9-1-4.4l0.4-8.4c0.1-0.5,0.6-0.9,1.1-0.9C269.2,416.6,269.3,416.6,269.3,416.6z"/>
<path class="st20" d="M275.5,418c0.7,0.9,0.7,2.2,0,3.2C274.8,420.2,274.8,418.9,275.5,418z"/>
<path class="st20" d="M283.8,421.2c1.5-0.4,3-1.1,4.3-2c0.6-0.5,1.2-1,1.7-1.6c0.5-0.5,0.8-1.2,1.5-1.9c0.7-0.6,1.5-1,2.4-1.1
	c0.9-0.1,1.8,0.1,2.6,0.5c1.5,0.8,2.6,2.2,3.1,3.8c-0.8-1.4-2-2.5-3.4-3.1c-1.3-0.7-2.9-0.4-4,0.6c-0.5,0.4-0.9,1.2-1.5,1.8
	c-0.6,0.6-1.2,1.2-1.9,1.6C287.1,420.7,285.5,421.2,283.8,421.2z"/>
<path class="st20" d="M295.2,411.1c1,0,2,0.1,3,0.4c1,0.3,1.9,0.7,2.7,1.3c0.4,0.3,0.8,0.6,1.2,0.9c0.4,0.3,0.7,0.7,1.1,1.1
	c0.7,0.8,1.2,1.6,1.5,2.6c-0.7-0.7-1.3-1.4-2.1-2c-0.7-0.6-1.5-1.2-2.3-1.7C298.8,412.6,297,411.7,295.2,411.1z"/>
<path class="st20" d="M299.3,409.7c1.1,0.1,2.2,0.4,3.2,0.8c1,0.4,2,1,2.9,1.6c0.9,0.7,1.7,1.5,2.4,2.4c0.7,0.9,1.2,1.9,1.5,3
	c-0.7-0.9-1.4-1.7-2.1-2.5c-0.7-0.8-1.6-1.4-2.4-2.1C303.1,411.7,301.3,410.7,299.3,409.7z"/>
<path class="st20" d="M310.1,412.8c-0.8-0.8-1.7-1.4-2.7-2c-0.5-0.3-1-0.5-1.5-0.6c-0.5-0.2-1.1-0.3-1.6-0.5
	c0.6-0.2,1.2-0.3,1.8-0.3c0.6,0.1,1.3,0.2,1.8,0.6c0.5,0.3,1,0.7,1.4,1.2C309.8,411.7,310,412.2,310.1,412.8z"/>
<path class="st2" d="M266.4,448c0,0,0.9,42,28.6,43c4.1,0.1,8.1-0.7,11.9-2.4l74.3-32.2c0.6-0.2,1.3,0.3,1.7,1
	c0.9,1.3,2.7,3,7.2,1.5c0.5-0.2,1.1,0,1.5,0.4l49.5,51.8l36.1-19.3c0,0-54-54-71.2-65.1c0,0-7.4-6.9-16.4-4.5l-88.1,17.6
	C289.5,441.4,277.8,444.2,266.4,448z"/>
<path class="st6" d="M382,442.1c0.3,1.8,0.5,3.7,0.5,5.6c0,1.9-0.1,3.8-0.5,5.6c-0.4-1.8-0.5-3.7-0.5-5.6
	C381.5,445.8,381.6,443.9,382,442.1z"/>
<path class="st6" d="M395.6,447.7c-0.4,1.6-1,3.2-1.8,4.8c-0.7,1.5-1.6,3-2.7,4.3c0.4-1.7,1-3.2,1.8-4.8
	C393.7,450.5,394.6,449,395.6,447.7z"/>
<path class="st2" d="M435.2,555.2c-2,2-44,10.9-44,10.9l-22.3-73.6c-0.1-0.4-0.3-0.7-0.6-1c-1.5-1.3-2.7-2.9-3.3-4.9
	c-0.3-0.8-1-1.4-1.9-1.4l-50.5,0.8l68.5-29.7c0.7-0.3,1.5,0,1.9,0.7c0,0,0.9,3.4,6.9,1.8c0,0,0.7-0.5,1.5,0.4
	c0,0,8.2,10.3,21.4,41.7L435.2,555.2z"/>
<path class="st6" d="M368.3,491.5c0,0-0.6-35.6,15.2-27.5l20.4,17c0,0-11.6-23.9-13.9-22.2c0,0-5.8,1.9-6.9-1.8c0,0-0.3-1.4-1.9-0.7
	L312.6,486l50.5-0.8c0.9,0.2,1.7,0.8,2,1.7C365.1,486.9,366.4,490.2,368.3,491.5z"/>
<line class="st22" x1="144.6" y1="497.8" x2="160.6" y2="497.8"/>
<line class="st22" x1="144.1" y1="533.9" x2="160.1" y2="533.9"/>
<line class="st22" x1="144.6" y1="571.7" x2="160.6" y2="571.7"/>
<polygon class="st0" points="331.7,435.1 338,391.5 395.6,381.4 388.9,426.4 "/>
<polygon class="st23" points="331.7,435.1 338,391.5 395.6,381.4 388.9,426.4 "/>
<polygon class="st0" points="299.4,440 331.7,435.1 338,391.5 335,392.2 329.2,432.3 299.4,436.9 "/>
<polygon class="st24" points="299.4,440 331.7,435.1 338,391.5 335,392.2 329.2,432.3 299.4,436.9 "/>
<ellipse transform="matrix(0.1483 -0.9889 0.9889 0.1483 -90.7978 706.2881)" class="st23" cx="364.7" cy="405.9" rx="5.3" ry="3.3"/>
<path class="st14" d="M204,473.9c0,0,18.3-4.7,30.4-9c0,0,47.2-22.4,59.3-1.6c0,0,16.4,27.6,25,73c0,0,6,43.9-40.8,50.6
	c-2.2,0.3-141.6,0-141.6,0l4.6-105.2c0,0,3.3-60.2,8.9-91.3c0,0-1.3-11.7,13.1-14.5l14.6-1.5L204,473.9z"/>
<path class="st13" d="M177.4,374.3c0,0,14.6-5.8,20.8,12.9l26.1,81l-20.2,5.7L177.4,374.3z"/>
<path class="st13" d="M275.8,454.4c0,0,24.1-6.2,32.2,4c13.3,18.7,24,39.1,31.8,60.7c0,0,24.1,54.4-35.3,67.9l-26.5-0.2
	c0,0,45.2-11,40.8-50.6c0,0-7.7-40.9-23.9-71.1C294.8,465.1,290.5,454.9,275.8,454.4z"/>
<path class="st16" d="M432.2,601.2c-0.1,0.4-0.4,0.6-0.8,0.6c-16.5-0.5-28.9-26.3-28.9-26.3c-2.2-4.2-0.2-6,0-6.2l0,0l1.3-6l13-3
	l1,7.4c-0.5,9.6,12.6,29.1,12.6,29.1c0.3,0.5,0.7,1.1,1,1.6C432,599.2,432.3,600.2,432.2,601.2z"/>
<path class="st17" d="M440,612.7h-11.2c-9.2,0-17.7-4.7-22.6-12.4c-0.9-1.3-1.3-2.2-1.3-2.2c-1.5-4.6-3.2-2.5-3.2-2.5v9.4h-3.9
	l0.1-22c-0.9-11.3,4.5-13.6,4.8-13.7c-0.2,0.2-2.2,2,0,6.2c0,0,12.4,25.9,28.9,26.3c0.4,0,0.7-0.2,0.8-0.6c0.1-1-0.2-2-0.7-2.8l0,0
	l9.8,11.7c0.6,0.7,0.5,1.8-0.3,2.4C440.7,612.6,440.4,612.7,440,612.7z"/>
<rect x="110.9" y="488.5" class="st25" width="82.3" height="119.5"/>
<rect x="115.8" y="491.5" class="st26" width="71.8" height="109.6"/>
<line class="st26" x1="115.8" y1="528.9" x2="187.6" y2="528.9"/>
<line class="st26" x1="115.8" y1="566.2" x2="187.6" y2="566.2"/>
<rect x="88" y="488.5" class="st0" width="22.9" height="119.5"/>
<rect x="88" y="488.5" class="st6" width="22.9" height="119.5"/>
<rect x="106.2" y="481.4" class="st0" width="92.6" height="7.1"/>
<rect x="106.2" y="481.4" class="st23" width="92.6" height="7.1"/>
<rect x="82" y="481.4" class="st0" width="24.2" height="7.1"/>
<rect x="82" y="481.4" class="st24" width="24.2" height="7.1"/>
<rect x="83.3" y="472.8" class="st18" width="58.5" height="8.6"/>
<rect x="91.2" y="464.8" class="st2" width="55.6" height="8"/>
<rect x="87" y="457.5" class="st0" width="52.9" height="7.3"/>
<path class="st0" d="M77.1,207.3v74.8c0,2.5,2,4.5,4.5,4.5h124.1c2.5,0,4.5-2,4.5-4.5v-74.8c0-2.5-2-4.5-4.5-4.5H81.6
	C79.1,202.8,77.1,204.8,77.1,207.3z"/>
<rect x="177" y="217.3" class="st5" width="23.1" height="20.4"/>
<rect x="146.6" y="217.3" class="st5" width="23.1" height="20.4"/>
<rect x="117.8" y="217.3" class="st5" width="23.1" height="20.4"/>
<rect x="88.1" y="217.3" class="st5" width="23.1" height="20.4"/>
<path class="st6" d="M77.1,237.7v44.4c0,2.5,2,4.5,4.5,4.5h124.1c2.5,0,4.5-2,4.5-4.5v-11c0,0-6.1,15-60.6,8.9
	C149.7,280,91,280.3,77.1,237.7z"/>
<path class="st2" d="M222.1,362.4l0.1-1c1.4,0.1,2.7,0.1,3.9,0.1s2-0.1,2-0.1l0.1,1c0,0-0.8,0.1-2.1,0.1S223.4,362.5,222.1,362.4z
	 M210.1,360.4l0.3-1c1.9,0.5,3.8,1,5.8,1.3l-0.2,1C214,361.4,212.1,360.9,210.1,360.4L210.1,360.4z M198.9,355.9l0.5-0.9
	c1.7,0.9,3.5,1.8,5.4,2.5l-0.4,0.9C202.5,357.7,200.7,356.9,198.9,355.9L198.9,355.9z M189.1,348.8l0.7-0.7c1.4,1.4,2.9,2.6,4.5,3.8
	l-0.6,0.8C192.1,351.5,190.6,350.2,189.1,348.8L189.1,348.8z M181.7,339.3l0.9-0.5c1,1.7,2.1,3.3,3.3,4.9l-0.8,0.6
	C183.8,342.7,182.7,341,181.7,339.3L181.7,339.3z M176.9,328.2l1-0.3c0.6,1.9,1.2,3.8,2,5.6l-0.9,0.4
	C178.2,332,177.5,330.1,176.9,328.2L176.9,328.2z M174.5,316.4l1-0.1c0.2,2,0.5,4,0.9,5.9l-1,0.2C175,320.4,174.7,318.4,174.5,316.4
	L174.5,316.4z M174,306.4c0-0.7,0-1.4,0-2.1h1c0,0.7,0,1.4,0,2c0,1.3,0,2.6,0.1,3.9h-1C174,309.1,174,307.7,174,306.4L174,306.4z
	 M174.3,298.3c0.1-1.9,0.3-4,0.6-6l1,0.1c-0.2,2-0.4,4-0.6,6L174.3,298.3z"/>
<path class="st0" d="M476.8,263.7l5-3.1l-3-5.2l-5.6,2.2l-4.1-6.6l4.5-2.4l-2.9-5.6l-5,2.9l-19.6-30.2c5.3-5.6,7.8-13.1,7.1-20.8
	c-1.1-12-12.4-23-24.4-23.9c-14.6-1.1-27.4,9.9-28.5,24.5c-0.1,1.6-0.1,3.1,0.1,4.7c1.3,12.9,13.5,23.9,26.5,23.8
	c2.5,0,5.1-0.4,7.5-1.1l36.3,55c0.2,0.4,0.6,0.6,1,0.7l9.7,2.2c0.1,0,0.2,0,0.3-0.2c0,0,0,0,0-0.1v-9.3c0-0.3-0.1-0.7-0.3-0.9
	L476.8,263.7z M424.1,197.2L424.1,197.2c-0.8,0.3-1.6,0.6-2.4,0.7c-5.3,0.9-10.4-2.7-11.3-8c0,0,0,0,0,0c-0.3-1.7-0.1-3.5,0.5-5.1
	c1.9-5,7.5-7.6,12.6-5.7c5,1.9,7.6,7.5,5.7,12.6C428.3,194.2,426.5,196.1,424.1,197.2L424.1,197.2z"/>
<path class="st6" d="M476.8,263.7l5-3.1l-3-5.2l-5.6,2.2l-4.1-6.6l4.5-2.4l-2.9-5.6l-5,2.9l-19.6-30.2c5.3-5.6,7.8-13.1,7.1-20.8
	c-1.1-12-12.4-23-24.4-23.9c-14.6-1.1-27.4,9.9-28.5,24.5c-0.1,1.6-0.1,3.1,0.1,4.7c1.3,12.9,13.5,23.9,26.5,23.8
	c2.5,0,5.1-0.4,7.5-1.1l36.3,55c0.2,0.4,0.6,0.6,1,0.7l9.7,2.2c0.1,0,0.2,0,0.3-0.2c0,0,0,0,0-0.1v-9.3c0-0.3-0.1-0.7-0.3-0.9
	L476.8,263.7z M424.1,197.2L424.1,197.2c-0.8,0.3-1.6,0.6-2.4,0.7c-5.3,0.9-10.4-2.7-11.3-8c0,0,0,0,0,0c-0.3-1.7-0.1-3.5,0.5-5.1
	c1.9-5,7.5-7.6,12.6-5.7c5,1.9,7.6,7.5,5.7,12.6C428.3,194.2,426.5,196.1,424.1,197.2L424.1,197.2z"/>
<path class="st0" d="M475.4,263.7l5-3.1l-3-5.2l-5.6,2.2l-4.1-6.6l4.5-2.4l-2.9-5.6l-5,2.9l-19.6-30.2c5.2-5.6,7.8-13.1,7.1-20.8
	c-1.1-12-12.4-23-24.4-23.9c-14.6-1.1-27.4,9.9-28.5,24.5c-0.1,1.6-0.1,3.1,0.1,4.7c1.3,12.9,13.5,23.9,26.5,23.8
	c2.6,0,5.1-0.4,7.5-1.1l36.3,55c0.2,0.3,0.6,0.6,1,0.7l9.7,2.3c0.1,0,0.2,0,0.3-0.2c0,0,0,0,0-0.1v-9.3c0-0.3-0.1-0.7-0.3-0.9
	L475.4,263.7z M422.7,197.2L422.7,197.2c-0.8,0.3-1.6,0.6-2.4,0.7c-5.3,0.9-10.4-2.6-11.3-7.9c0,0,0,0,0,0c-0.3-1.7-0.1-3.5,0.5-5.1
	c1.9-5,7.5-7.6,12.6-5.7c5,1.9,7.6,7.5,5.7,12.6C426.8,194.2,425,196.2,422.7,197.2L422.7,197.2z"/>
<image style="overflow:visible;" width="3607" height="2845" xlink:href="cave.png"  transform="matrix(3.854903e-02 0 0 3.854903e-02 542.8237 192.458)">
</image>
<text transform="matrix(1 0 0 1 92.8721 231.9126)" class="st27 st28">C        A        V         E</text>
</svg>
